  0
SECTION
  2
HEADER
  9
$MEASUREMENT
  70
  1
  9
$INSUNITS
  70
  4
  0
ENDSEC
  0
SECTION
  2
TABLES
  0
TABLE
  2
LTYPE
 70
     1
  0
LTYPE
  2
CONTINUOUS
 70
    64
  3
Ausgezogene Linie
 72
    65
 73
     0
 40
0.0
  0
ENDTAB
  0
TABLE
  2
LAYER
 70
     3
  0
LAYER
  2
Kontur
 70
    64
 62
     7
  6
CONTINUOUS
  0
LAYER
  2
Gravur
 70
    64
 62
     7
  6
CONTINUOUS
  0
LAYER
  2
Bezugspunkte
 70
    64
 62
     1
  6
CONTINUOUS
  0
ENDTAB
  0
TABLE
  2
STYLE
 70
     1
  0
STYLE
  2
TXT
 70
    64
 40
0.0
 41
1.0
 50
0.0
 71
     0
 42
3.500000
  3
TXT
  0
ENDTAB
  0
ENDSEC
  0
SECTION
  2
BLOCKS
  0
ENDSEC
  0
SECTION
  2
ENTITIES
  0
LINE
  8
Kontur
 62
   7
 39
0.100
  6
CONTINUOUS
 10
40.30000
 20
128.40000
 30
 0
 11
40.30000
 21
0.00000
  0
LINE
  8
Kontur
 62
   7
 39
0.100
  6
CONTINUOUS
 10
40.30000
 20
0.00000
 30
 0
 11
0.00000
 21
0.00000
  0
LINE
  8
Kontur
 62
   7
 39
0.100
  6
CONTINUOUS
 10
0.00000
 20
0.00000
 30
 0
 11
0.00000
 21
128.40000
  0
LINE
  8
Kontur
 62
   7
 39
0.100
  6
CONTINUOUS
 10
0.00000
 20
128.40000
 30
 0
 11
40.30000
 21
128.40000
  0
ARC
  8
Kontur
 62
   7
 39
0.100
  6
CONTINUOUS
 10
0.35355
 20
122.74855
 30
 0
 40
0.50000
 50
135.00000
 51
314.99999
  0
LINE
  8
Kontur
 62
   7
 39
0.100
  6
CONTINUOUS
 10
0.70711
 20
122.39500
 30
 0
 11
39.59289
 21
122.39500
  0
ARC
  8
Kontur
 62
   7
 39
0.100
  6
CONTINUOUS
 10
39.94645
 20
122.74855
 30
 0
 40
0.50000
 50
225.00000
 51
404.99999
  0
LINE
  8
Kontur
 62
   7
 39
0.100
  6
CONTINUOUS
 10
40.30000
 20
123.10211
 30
 0
 11
40.30000
 21
127.68789
  0
ARC
  8
Kontur
 62
   7
 39
0.100
  6
CONTINUOUS
 10
39.94645
 20
128.04145
 30
 0
 40
0.50000
 50
315.00000
 51
494.99999
  0
LINE
  8
Kontur
 62
   7
 39
0.100
  6
CONTINUOUS
 10
39.59289
 20
128.39500
 30
 0
 11
0.70711
 21
128.39500
  0
ARC
  8
Kontur
 62
   7
 39
0.100
  6
CONTINUOUS
 10
0.35355
 20
128.04145
 30
 0
 40
0.50000
 50
45.00000
 51
224.99999
  0
LINE
  8
Kontur
 62
   7
 39
0.100
  6
CONTINUOUS
 10
0.00000
 20
127.68789
 30
 0
 11
0.00000
 21
123.10211
  0
ARC
  8
Kontur
 62
   7
 39
0.100
  6
CONTINUOUS
 10
0.35355
 20
0.35355
 30
 0
 40
0.50000
 50
135.00000
 51
314.99999
  0
LINE
  8
Kontur
 62
   7
 39
0.100
  6
CONTINUOUS
 10
0.70711
 20
0.00000
 30
 0
 11
39.59289
 21
0.00000
  0
ARC
  8
Kontur
 62
   7
 39
0.100
  6
CONTINUOUS
 10
39.94645
 20
0.35355
 30
 0
 40
0.50000
 50
225.00000
 51
404.99999
  0
LINE
  8
Kontur
 62
   7
 39
0.100
  6
CONTINUOUS
 10
40.30000
 20
0.70711
 30
 0
 11
40.30000
 21
5.29289
  0
ARC
  8
Kontur
 62
   7
 39
0.100
  6
CONTINUOUS
 10
39.94645
 20
5.64645
 30
 0
 40
0.50000
 50
315.00000
 51
494.99999
  0
LINE
  8
Kontur
 62
   7
 39
0.100
  6
CONTINUOUS
 10
39.59289
 20
6.00000
 30
 0
 11
0.70711
 21
6.00000
  0
ARC
  8
Kontur
 62
   7
 39
0.100
  6
CONTINUOUS
 10
0.35355
 20
5.64645
 30
 0
 40
0.50000
 50
45.00000
 51
224.99999
  0
LINE
  8
Kontur
 62
   7
 39
0.100
  6
CONTINUOUS
 10
0.00000
 20
5.29289
 30
 0
 11
0.00000
 21
0.70711
  0
LINE
  8
Gravur
 62
   7
 39
0.400
  6
CONTINUOUS
 10
5.49273
 20
93.97767
 30
 0
 11
6.20468
 21
92.26900
  0
LINE
  8
Gravur
 62
   7
 39
0.400
  6
CONTINUOUS
 10
6.20468
 20
92.26900
 30
 0
 11
6.91662
 21
93.97767
  0
LINE
  8
Gravur
 62
   7
 39
0.400
  6
CONTINUOUS
 10
7.60073
 20
92.09813
 30
 0
 11
8.68289
 21
94.97439
  0
LINE
  8
Gravur
 62
   7
 39
0.400
  6
CONTINUOUS
 10
9.36673
 20
92.98094
 30
 0
 11
9.36673
 21
93.26572
  0
ARC
  8
Gravur
 62
   7
 39
0.400
  6
CONTINUOUS
 10
10.07868
 20
93.26572
 30
 0
 40
0.71194
 50
0.00000
 51
180.00000
  0
LINE
  8
Gravur
 62
   7
 39
0.400
  6
CONTINUOUS
 10
10.79062
 20
93.26572
 30
 0
 11
10.79062
 21
92.98094
  0
ARC
  8
Gravur
 62
   7
 39
0.400
  6
CONTINUOUS
 10
10.07868
 20
92.98094
 30
 0
 40
0.71194
 50
-180.00000
 51
0.00000
  0
ARC
  8
Gravur
 62
   7
 39
0.400
  6
CONTINUOUS
 10
12.17977
 20
93.27061
 30
 0
 40
0.70606
 50
42.74595
 51
180.39666
  0
LINE
  8
Gravur
 62
   7
 39
0.400
  6
CONTINUOUS
 10
11.47373
 20
93.26572
 30
 0
 11
11.47373
 21
92.98094
  0
ARC
  8
Gravur
 62
   7
 39
0.400
  6
CONTINUOUS
 10
12.18120
 20
92.98153
 30
 0
 40
0.70747
 50
180.04758
 51
328.39092
  0
LINE
  8
Gravur
 62
   7
 39
0.400
  6
CONTINUOUS
 10
13.72303
 20
94.83200
 30
 0
 11
13.72303
 21
93.97767
  0
LINE
  8
Gravur
 62
   7
 39
0.400
  6
CONTINUOUS
 10
13.72303
 20
93.97767
 30
 0
 11
14.15020
 21
93.97767
  0
LINE
  8
Gravur
 62
   7
 39
0.400
  6
CONTINUOUS
 10
14.15020
 20
93.97767
 30
 0
 11
13.43826
 21
93.97767
  0
LINE
  8
Gravur
 62
   7
 39
0.400
  6
CONTINUOUS
 10
13.43826
 20
93.97767
 30
 0
 11
13.72303
 21
93.97767
  0
LINE
  8
Gravur
 62
   7
 39
0.400
  6
CONTINUOUS
 10
13.72303
 20
93.97767
 30
 0
 11
13.72303
 21
92.61073
  0
ARC
  8
Gravur
 62
   7
 39
0.400
  6
CONTINUOUS
 10
14.07035
 20
92.61064
 30
 0
 40
0.34731
 50
179.98432
 51
259.62682
  0
LINE
  8
Gravur
 62
   7
 39
0.400
  6
CONTINUOUS
 10
16.36373
 20
57.22467
 30
 0
 11
16.36373
 21
59.07572
  0
ARC
  8
Gravur
 62
   7
 39
0.400
  6
CONTINUOUS
 10
17.07568
 20
59.07572
 30
 0
 40
0.71194
 50
0.00000
 51
180.00000
  0
LINE
  8
Gravur
 62
   7
 39
0.400
  6
CONTINUOUS
 10
17.78762
 20
59.07572
 30
 0
 11
17.78762
 21
58.79094
  0
ARC
  8
Gravur
 62
   7
 39
0.400
  6
CONTINUOUS
 10
17.07568
 20
58.79094
 30
 0
 40
0.71194
 50
-180.00000
 51
0.00000
  0
LINE
  8
Gravur
 62
   7
 39
0.400
  6
CONTINUOUS
 10
16.36373
 20
58.79094
 30
 0
 11
16.36373
 21
59.78767
  0
LINE
  8
Gravur
 62
   7
 39
0.400
  6
CONTINUOUS
 10
18.47173
 20
60.64200
 30
 0
 11
18.47173
 21
60.49961
  0
LINE
  8
Gravur
 62
   7
 39
0.400
  6
CONTINUOUS
 10
18.47173
 20
59.78767
 30
 0
 11
18.47173
 21
58.07900
  0
LINE
  8
Gravur
 62
   7
 39
0.400
  6
CONTINUOUS
 10
19.41203
 20
60.64200
 30
 0
 11
19.41203
 21
59.78767
  0
LINE
  8
Gravur
 62
   7
 39
0.400
  6
CONTINUOUS
 10
19.41203
 20
59.78767
 30
 0
 11
19.83920
 21
59.78767
  0
LINE
  8
Gravur
 62
   7
 39
0.400
  6
CONTINUOUS
 10
19.83920
 20
59.78767
 30
 0
 11
19.12726
 21
59.78767
  0
LINE
  8
Gravur
 62
   7
 39
0.400
  6
CONTINUOUS
 10
19.12726
 20
59.78767
 30
 0
 11
19.41203
 21
59.78767
  0
LINE
  8
Gravur
 62
   7
 39
0.400
  6
CONTINUOUS
 10
19.41203
 20
59.78767
 30
 0
 11
19.41203
 21
58.42073
  0
ARC
  8
Gravur
 62
   7
 39
0.400
  6
CONTINUOUS
 10
19.75935
 20
58.42064
 30
 0
 40
0.34731
 50
179.98432
 51
259.62682
  0
ARC
  8
Gravur
 62
   7
 39
0.400
  6
CONTINUOUS
 10
21.22777
 20
59.08061
 30
 0
 40
0.70606
 50
42.74595
 51
180.39666
  0
LINE
  8
Gravur
 62
   7
 39
0.400
  6
CONTINUOUS
 10
20.52173
 20
59.07572
 30
 0
 11
20.52173
 21
58.79094
  0
ARC
  8
Gravur
 62
   7
 39
0.400
  6
CONTINUOUS
 10
21.22920
 20
58.79153
 30
 0
 40
0.70747
 50
180.04758
 51
328.39092
  0
LINE
  8
Gravur
 62
   7
 39
0.400
  6
CONTINUOUS
 10
22.51473
 20
60.64200
 30
 0
 11
22.51473
 21
58.07900
  0
LINE
  8
Gravur
 62
   7
 39
0.400
  6
CONTINUOUS
 10
22.51473
 20
58.07900
 30
 0
 11
22.51473
 21
59.07572
  0
ARC
  8
Gravur
 62
   7
 39
0.400
  6
CONTINUOUS
 10
23.22668
 20
59.07572
 30
 0
 40
0.71194
 50
0.00000
 51
180.00000
  0
LINE
  8
Gravur
 62
   7
 39
0.400
  6
CONTINUOUS
 10
23.93862
 20
59.07572
 30
 0
 11
23.93862
 21
58.07900
  0
LINE
  8
Gravur
 62
   7
 39
0.400
  6
CONTINUOUS
 10
16.50562
 20
40.32200
 30
 0
 11
16.50562
 21
38.47094
  0
ARC
  8
Gravur
 62
   7
 39
0.400
  6
CONTINUOUS
 10
15.79368
 20
38.44247
 30
 0
 40
0.71251
 50
-177.70939
 51
2.29061
  0
LINE
  8
Gravur
 62
   7
 39
0.400
  6
CONTINUOUS
 10
15.08173
 20
38.41399
 30
 0
 11
15.08173
 21
38.75572
  0
ARC
  8
Gravur
 62
   7
 39
0.400
  6
CONTINUOUS
 10
15.79368
 20
38.75572
 30
 0
 40
0.71194
 50
0.00000
 51
180.00000
  0
LINE
  8
Gravur
 62
   7
 39
0.400
  6
CONTINUOUS
 10
16.50562
 20
38.75572
 30
 0
 11
16.50562
 21
37.75900
  0
LINE
  8
Gravur
 62
   7
 39
0.400
  6
CONTINUOUS
 10
17.18973
 20
38.61333
 30
 0
 11
18.61362
 21
38.61333
  0
LINE
  8
Gravur
 62
   7
 39
0.400
  6
CONTINUOUS
 10
18.61362
 20
38.61333
 30
 0
 11
18.61362
 21
38.75572
  0
ARC
  8
Gravur
 62
   7
 39
0.400
  6
CONTINUOUS
 10
17.90168
 20
38.75572
 30
 0
 40
0.71194
 50
0.00000
 51
180.00000
  0
LINE
  8
Gravur
 62
   7
 39
0.400
  6
CONTINUOUS
 10
17.18973
 20
38.75572
 30
 0
 11
17.18973
 21
38.47094
  0
ARC
  8
Gravur
 62
   7
 39
0.400
  6
CONTINUOUS
 10
17.93631
 20
38.47035
 30
 0
 40
0.74658
 50
179.95424
 51
322.44599
  0
ARC
  8
Gravur
 62
   7
 39
0.400
  6
CONTINUOUS
 10
20.00377
 20
38.76161
 30
 0
 40
0.70606
 50
42.74595
 51
180.39666
  0
LINE
  8
Gravur
 62
   7
 39
0.400
  6
CONTINUOUS
 10
19.29773
 20
38.75672
 30
 0
 11
19.29773
 21
38.47194
  0
ARC
  8
Gravur
 62
   7
 39
0.400
  6
CONTINUOUS
 10
20.00520
 20
38.47253
 30
 0
 40
0.70747
 50
180.04758
 51
328.39092
  0
LINE
  8
Gravur
 62
   7
 39
0.400
  6
CONTINUOUS
 10
22.77158
 20
39.46867
 30
 0
 11
22.77158
 21
38.47194
  0
ARC
  8
Gravur
 62
   7
 39
0.400
  6
CONTINUOUS
 10
22.03116
 20
38.47194
 30
 0
 40
0.74042
 50
-180.00000
 51
0.00000
  0
LINE
  8
Gravur
 62
   7
 39
0.400
  6
CONTINUOUS
 10
21.29073
 20
38.47194
 30
 0
 11
21.29073
 21
38.75672
  0
ARC
  8
Gravur
 62
   7
 39
0.400
  6
CONTINUOUS
 10
22.03116
 20
38.75672
 30
 0
 40
0.74042
 50
0.00000
 51
180.00000
  0
LINE
  8
Gravur
 62
   7
 39
0.400
  6
CONTINUOUS
 10
22.77158
 20
38.75672
 30
 0
 11
22.77158
 21
38.07326
  0
ARC
  8
Gravur
 62
   7
 39
0.400
  6
CONTINUOUS
 10
23.18446
 20
38.11155
 30
 0
 40
0.41466
 50
185.29897
 51
260.11981
  0
LINE
  8
Gravur
 62
   7
 39
0.400
  6
CONTINUOUS
 10
23.79673
 20
39.46967
 30
 0
 11
24.48020
 21
37.84643
  0
LINE
  8
Gravur
 62
   7
 39
0.400
  6
CONTINUOUS
 10
25.22062
 20
39.46967
 30
 0
 11
24.19542
 21
37.16297
  0
ARC
  8
Gravur
 62
   7
 39
0.400
  6
CONTINUOUS
 10
23.80110
 20
37.33811
 30
 0
 40
0.43146
 50
269.41954
 51
336.05092
  0
ARC
  8
Gravur
 62
   7
 39
0.400
  6
CONTINUOUS
 10
5.79477
 20
15.94061
 30
 0
 40
0.70606
 50
42.74595
 51
180.39666
  0
LINE
  8
Gravur
 62
   7
 39
0.400
  6
CONTINUOUS
 10
5.08873
 20
15.93572
 30
 0
 11
5.08873
 21
15.65094
  0
ARC
  8
Gravur
 62
   7
 39
0.400
  6
CONTINUOUS
 10
5.79620
 20
15.65153
 30
 0
 40
0.70747
 50
180.04758
 51
328.39092
  0
LINE
  8
Gravur
 62
   7
 39
0.400
  6
CONTINUOUS
 10
7.08273
 20
17.50200
 30
 0
 11
7.08273
 21
14.93900
  0
LINE
  8
Gravur
 62
   7
 39
0.400
  6
CONTINUOUS
 10
7.08273
 20
14.93900
 30
 0
 11
7.08273
 21
15.93572
  0
ARC
  8
Gravur
 62
   7
 39
0.400
  6
CONTINUOUS
 10
7.79468
 20
15.93572
 30
 0
 40
0.71194
 50
0.00000
 51
180.00000
  0
LINE
  8
Gravur
 62
   7
 39
0.400
  6
CONTINUOUS
 10
8.50662
 20
15.93572
 30
 0
 11
8.50662
 21
14.93900
  0
LINE
  8
Gravur
 62
   7
 39
0.400
  6
CONTINUOUS
 10
10.67158
 20
16.64767
 30
 0
 11
10.67158
 21
15.65094
  0
ARC
  8
Gravur
 62
   7
 39
0.400
  6
CONTINUOUS
 10
9.93116
 20
15.65094
 30
 0
 40
0.74042
 50
-180.00000
 51
0.00000
  0
LINE
  8
Gravur
 62
   7
 39
0.400
  6
CONTINUOUS
 10
9.19073
 20
15.65094
 30
 0
 11
9.19073
 21
15.93572
  0
ARC
  8
Gravur
 62
   7
 39
0.400
  6
CONTINUOUS
 10
9.93116
 20
15.93572
 30
 0
 40
0.74042
 50
0.00000
 51
180.00000
  0
LINE
  8
Gravur
 62
   7
 39
0.400
  6
CONTINUOUS
 10
10.67158
 20
15.93572
 30
 0
 11
10.67158
 21
15.25226
  0
ARC
  8
Gravur
 62
   7
 39
0.400
  6
CONTINUOUS
 10
11.08446
 20
15.29055
 30
 0
 40
0.41466
 50
185.29897
 51
260.11981
  0
LINE
  8
Gravur
 62
   7
 39
0.400
  6
CONTINUOUS
 10
11.69673
 20
15.65194
 30
 0
 11
11.69673
 21
15.93672
  0
ARC
  8
Gravur
 62
   7
 39
0.400
  6
CONTINUOUS
 10
12.40868
 20
15.93672
 30
 0
 40
0.71194
 50
0.00000
 51
180.00000
  0
LINE
  8
Gravur
 62
   7
 39
0.400
  6
CONTINUOUS
 10
13.12062
 20
15.93672
 30
 0
 11
13.12062
 21
15.65194
  0
ARC
  8
Gravur
 62
   7
 39
0.400
  6
CONTINUOUS
 10
12.40868
 20
15.65194
 30
 0
 40
0.71194
 50
-180.00000
 51
0.00000
  0
ARC
  8
Gravur
 62
   7
 39
0.400
  6
CONTINUOUS
 10
14.45051
 20
15.88745
 30
 0
 40
0.96757
 50
228.05192
 51
293.02344
  0
ARC
  8
Gravur
 62
   7
 39
0.400
  6
CONTINUOUS
 10
14.68650
 20
15.33335
 30
 0
 40
0.36530
 50
292.94873
 51
431.82316
  0
LINE
  8
Gravur
 62
   7
 39
0.400
  6
CONTINUOUS
 10
14.80046
 20
15.68042
 30
 0
 11
14.03156
 21
15.93672
  0
ARC
  8
Gravur
 62
   7
 39
0.400
  6
CONTINUOUS
 10
14.13413
 20
16.24822
 30
 0
 40
0.32795
 50
119.10762
 51
251.77304
  0
ARC
  8
Gravur
 62
   7
 39
0.400
  6
CONTINUOUS
 10
14.47095
 20
15.65649
 30
 0
 40
1.00882
 50
54.50145
 51
119.47297
  0
LINE
  8
Gravur
 62
   7
 39
0.400
  6
CONTINUOUS
 10
5.05903
 20
14.11600
 30
 0
 11
5.05903
 21
13.26167
  0
LINE
  8
Gravur
 62
   7
 39
0.400
  6
CONTINUOUS
 10
5.05903
 20
13.26167
 30
 0
 11
5.48620
 21
13.26167
  0
LINE
  8
Gravur
 62
   7
 39
0.400
  6
CONTINUOUS
 10
5.48620
 20
13.26167
 30
 0
 11
4.77426
 21
13.26167
  0
LINE
  8
Gravur
 62
   7
 39
0.400
  6
CONTINUOUS
 10
4.77426
 20
13.26167
 30
 0
 11
5.05903
 21
13.26167
  0
LINE
  8
Gravur
 62
   7
 39
0.400
  6
CONTINUOUS
 10
5.05903
 20
13.26167
 30
 0
 11
5.05903
 21
11.89473
  0
ARC
  8
Gravur
 62
   7
 39
0.400
  6
CONTINUOUS
 10
5.40635
 20
11.89464
 30
 0
 40
0.34731
 50
179.98432
 51
259.62682
  0
LINE
  8
Gravur
 62
   7
 39
0.400
  6
CONTINUOUS
 10
6.16973
 20
11.55300
 30
 0
 11
6.16973
 21
13.26167
  0
LINE
  8
Gravur
 62
   7
 39
0.400
  6
CONTINUOUS
 10
6.16973
 20
13.26167
 30
 0
 11
6.16973
 21
12.69211
  0
ARC
  8
Gravur
 62
   7
 39
0.400
  6
CONTINUOUS
 10
6.79904
 20
12.69213
 30
 0
 40
0.62931
 50
140.69073
 51
180.00162
  0
ARC
  8
Gravur
 62
   7
 39
0.400
  6
CONTINUOUS
 10
6.62538
 20
12.83327
 30
 0
 40
0.40553
 50
39.42406
 51
140.57594
  0
LINE
  8
Gravur
 62
   7
 39
0.400
  6
CONTINUOUS
 10
7.59373
 20
14.11600
 30
 0
 11
7.59373
 21
13.97361
  0
LINE
  8
Gravur
 62
   7
 39
0.400
  6
CONTINUOUS
 10
7.59373
 20
13.26167
 30
 0
 11
7.59373
 21
11.55300
  0
LINE
  8
Gravur
 62
   7
 39
0.400
  6
CONTINUOUS
 10
9.70162
 20
13.26167
 30
 0
 11
9.70162
 21
12.26494
  0
ARC
  8
Gravur
 62
   7
 39
0.400
  6
CONTINUOUS
 10
8.98968
 20
12.23647
 30
 0
 40
0.71251
 50
-177.70939
 51
2.29061
  0
LINE
  8
Gravur
 62
   7
 39
0.400
  6
CONTINUOUS
 10
8.27773
 20
12.20799
 30
 0
 11
8.27773
 21
12.54972
  0
ARC
  8
Gravur
 62
   7
 39
0.400
  6
CONTINUOUS
 10
8.98968
 20
12.54972
 30
 0
 40
0.71194
 50
0.00000
 51
180.00000
  0
LINE
  8
Gravur
 62
   7
 39
0.400
  6
CONTINUOUS
 10
9.70162
 20
12.54972
 30
 0
 11
9.70162
 21
11.41061
  0
ARC
  8
Gravur
 62
   7
 39
0.400
  6
CONTINUOUS
 10
8.98365
 20
11.40682
 30
 0
 40
0.71798
 50
-134.87369
 51
0.30252
  0
LINE
  8
Gravur
 62
   7
 39
0.400
  6
CONTINUOUS
 10
11.80962
 20
13.26167
 30
 0
 11
11.80962
 21
12.26494
  0
ARC
  8
Gravur
 62
   7
 39
0.400
  6
CONTINUOUS
 10
11.09768
 20
12.23647
 30
 0
 40
0.71251
 50
-177.70939
 51
2.29061
  0
LINE
  8
Gravur
 62
   7
 39
0.400
  6
CONTINUOUS
 10
10.38573
 20
12.20799
 30
 0
 11
10.38573
 21
12.54972
  0
ARC
  8
Gravur
 62
   7
 39
0.400
  6
CONTINUOUS
 10
11.09768
 20
12.54972
 30
 0
 40
0.71194
 50
0.00000
 51
180.00000
  0
LINE
  8
Gravur
 62
   7
 39
0.400
  6
CONTINUOUS
 10
11.80962
 20
12.54972
 30
 0
 11
11.80962
 21
11.41061
  0
ARC
  8
Gravur
 62
   7
 39
0.400
  6
CONTINUOUS
 10
11.09165
 20
11.40682
 30
 0
 40
0.71798
 50
-134.87369
 51
0.30252
  0
LINE
  8
Gravur
 62
   7
 39
0.400
  6
CONTINUOUS
 10
12.49273
 20
12.40733
 30
 0
 11
13.91662
 21
12.40733
  0
LINE
  8
Gravur
 62
   7
 39
0.400
  6
CONTINUOUS
 10
13.91662
 20
12.40733
 30
 0
 11
13.91662
 21
12.54972
  0
ARC
  8
Gravur
 62
   7
 39
0.400
  6
CONTINUOUS
 10
13.20468
 20
12.54972
 30
 0
 40
0.71194
 50
0.00000
 51
180.00000
  0
LINE
  8
Gravur
 62
   7
 39
0.400
  6
CONTINUOUS
 10
12.49273
 20
12.54972
 30
 0
 11
12.49273
 21
12.26494
  0
ARC
  8
Gravur
 62
   7
 39
0.400
  6
CONTINUOUS
 10
13.23931
 20
12.26435
 30
 0
 40
0.74658
 50
179.95424
 51
322.44599
  0
LINE
  8
Gravur
 62
   7
 39
0.400
  6
CONTINUOUS
 10
14.59973
 20
11.55300
 30
 0
 11
14.59973
 21
13.26167
  0
LINE
  8
Gravur
 62
   7
 39
0.400
  6
CONTINUOUS
 10
14.59973
 20
13.26167
 30
 0
 11
14.59973
 21
12.69211
  0
ARC
  8
Gravur
 62
   7
 39
0.400
  6
CONTINUOUS
 10
15.22904
 20
12.69213
 30
 0
 40
0.62931
 50
140.69073
 51
180.00162
  0
ARC
  8
Gravur
 62
   7
 39
0.400
  6
CONTINUOUS
 10
15.05538
 20
12.83327
 30
 0
 40
0.40553
 50
39.42406
 51
140.57594
  0
LINE
  8
Gravur
 62
   7
 39
0.400
  6
CONTINUOUS
 10
27.29858
 20
16.64767
 30
 0
 11
27.29858
 21
15.65094
  0
ARC
  8
Gravur
 62
   7
 39
0.400
  6
CONTINUOUS
 10
26.55816
 20
15.65094
 30
 0
 40
0.74042
 50
-180.00000
 51
0.00000
  0
LINE
  8
Gravur
 62
   7
 39
0.400
  6
CONTINUOUS
 10
25.81773
 20
15.65094
 30
 0
 11
25.81773
 21
15.93572
  0
ARC
  8
Gravur
 62
   7
 39
0.400
  6
CONTINUOUS
 10
26.55816
 20
15.93572
 30
 0
 40
0.74042
 50
0.00000
 51
180.00000
  0
LINE
  8
Gravur
 62
   7
 39
0.400
  6
CONTINUOUS
 10
27.29858
 20
15.93572
 30
 0
 11
27.29858
 21
15.25226
  0
ARC
  8
Gravur
 62
   7
 39
0.400
  6
CONTINUOUS
 10
27.71146
 20
15.29055
 30
 0
 40
0.41466
 50
185.29897
 51
260.11981
  0
LINE
  8
Gravur
 62
   7
 39
0.400
  6
CONTINUOUS
 10
28.32473
 20
16.64867
 30
 0
 11
28.32473
 21
15.65194
  0
ARC
  8
Gravur
 62
   7
 39
0.400
  6
CONTINUOUS
 10
29.03668
 20
15.65194
 30
 0
 40
0.71194
 50
180.00000
 51
360.00000
  0
LINE
  8
Gravur
 62
   7
 39
0.400
  6
CONTINUOUS
 10
29.74862
 20
15.65194
 30
 0
 11
29.74862
 21
14.94000
  0
LINE
  8
Gravur
 62
   7
 39
0.400
  6
CONTINUOUS
 10
29.74862
 20
14.94000
 30
 0
 11
29.74862
 21
16.64867
  0
LINE
  8
Gravur
 62
   7
 39
0.400
  6
CONTINUOUS
 10
31.85662
 20
17.50300
 30
 0
 11
31.85662
 21
15.65194
  0
ARC
  8
Gravur
 62
   7
 39
0.400
  6
CONTINUOUS
 10
31.14468
 20
15.62347
 30
 0
 40
0.71251
 50
-177.70939
 51
2.29061
  0
LINE
  8
Gravur
 62
   7
 39
0.400
  6
CONTINUOUS
 10
30.43273
 20
15.59499
 30
 0
 11
30.43273
 21
15.93672
  0
ARC
  8
Gravur
 62
   7
 39
0.400
  6
CONTINUOUS
 10
31.14468
 20
15.93672
 30
 0
 40
0.71194
 50
0.00000
 51
180.00000
  0
LINE
  8
Gravur
 62
   7
 39
0.400
  6
CONTINUOUS
 10
31.85662
 20
15.93672
 30
 0
 11
31.85662
 21
14.94000
  0
LINE
  8
Gravur
 62
   7
 39
0.400
  6
CONTINUOUS
 10
32.53973
 20
17.50300
 30
 0
 11
32.53973
 21
17.36061
  0
LINE
  8
Gravur
 62
   7
 39
0.400
  6
CONTINUOUS
 10
32.53973
 20
16.64867
 30
 0
 11
32.53973
 21
14.94000
  0
LINE
  8
Gravur
 62
   7
 39
0.400
  6
CONTINUOUS
 10
33.22273
 20
15.65194
 30
 0
 11
33.22273
 21
15.93672
  0
ARC
  8
Gravur
 62
   7
 39
0.400
  6
CONTINUOUS
 10
33.93468
 20
15.93672
 30
 0
 40
0.71194
 50
0.00000
 51
180.00000
  0
LINE
  8
Gravur
 62
   7
 39
0.400
  6
CONTINUOUS
 10
34.64662
 20
15.93672
 30
 0
 11
34.64662
 21
15.65194
  0
ARC
  8
Gravur
 62
   7
 39
0.400
  6
CONTINUOUS
 10
33.93468
 20
15.65194
 30
 0
 40
0.71194
 50
-180.00000
 51
0.00000
  0
LINE
  8
Gravur
 62
   7
 39
0.400
  6
CONTINUOUS
 10
27.78173
 20
12.26494
 30
 0
 11
27.78173
 21
12.54972
  0
ARC
  8
Gravur
 62
   7
 39
0.400
  6
CONTINUOUS
 10
28.49368
 20
12.54972
 30
 0
 40
0.71194
 50
0.00000
 51
180.00000
  0
LINE
  8
Gravur
 62
   7
 39
0.400
  6
CONTINUOUS
 10
29.20562
 20
12.54972
 30
 0
 11
29.20562
 21
12.26494
  0
ARC
  8
Gravur
 62
   7
 39
0.400
  6
CONTINUOUS
 10
28.49368
 20
12.26494
 30
 0
 40
0.71194
 50
-180.00000
 51
0.00000
  0
LINE
  8
Gravur
 62
   7
 39
0.400
  6
CONTINUOUS
 10
29.88973
 20
13.26167
 30
 0
 11
29.88973
 21
12.26494
  0
ARC
  8
Gravur
 62
   7
 39
0.400
  6
CONTINUOUS
 10
30.60168
 20
12.26494
 30
 0
 40
0.71194
 50
180.00000
 51
360.00000
  0
LINE
  8
Gravur
 62
   7
 39
0.400
  6
CONTINUOUS
 10
31.31362
 20
12.26494
 30
 0
 11
31.31362
 21
11.55300
  0
LINE
  8
Gravur
 62
   7
 39
0.400
  6
CONTINUOUS
 10
31.31362
 20
11.55300
 30
 0
 11
31.31362
 21
13.26167
  0
LINE
  8
Gravur
 62
   7
 39
0.400
  6
CONTINUOUS
 10
32.25303
 20
14.11600
 30
 0
 11
32.25303
 21
13.26167
  0
LINE
  8
Gravur
 62
   7
 39
0.400
  6
CONTINUOUS
 10
32.25303
 20
13.26167
 30
 0
 11
32.68020
 21
13.26167
  0
LINE
  8
Gravur
 62
   7
 39
0.400
  6
CONTINUOUS
 10
32.68020
 20
13.26167
 30
 0
 11
31.96826
 21
13.26167
  0
LINE
  8
Gravur
 62
   7
 39
0.400
  6
CONTINUOUS
 10
31.96826
 20
13.26167
 30
 0
 11
32.25303
 21
13.26167
  0
LINE
  8
Gravur
 62
   7
 39
0.400
  6
CONTINUOUS
 10
32.25303
 20
13.26167
 30
 0
 11
32.25303
 21
11.89473
  0
ARC
  8
Gravur
 62
   7
 39
0.400
  6
CONTINUOUS
 10
32.60035
 20
11.89464
 30
 0
 40
0.34731
 50
179.98432
 51
259.62682
  0
LINE
  8
Gravur
 62
   255
 39
0.400
  6
CONTINUOUS
 10
2.05733
 20
119.65333
 30
 0
 11
3.97400
 21
119.65333
  0
LINE
  8
Gravur
 62
   255
 39
0.400
  6
CONTINUOUS
 10
1.67400
 20
118.69500
 30
 0
 11
3.01567
 21
122.14500
  0
LINE
  8
Gravur
 62
   255
 39
0.400
  6
CONTINUOUS
 10
3.01567
 20
122.14500
 30
 0
 11
4.35733
 21
118.69500
  0
LINE
  8
Gravur
 62
   255
 39
0.400
  6
CONTINUOUS
 10
5.27800
 20
118.69500
 30
 0
 11
5.27800
 21
120.99500
  0
LINE
  8
Gravur
 62
   255
 39
0.400
  6
CONTINUOUS
 10
5.27800
 20
120.99500
 30
 0
 11
5.27800
 21
120.03667
  0
ARC
  8
Gravur
 62
   255
 39
0.400
  6
CONTINUOUS
 10
6.23633
 20
120.03667
 30
 0
 40
0.95833
 50
0.00000
 51
180.00000
  0
LINE
  8
Gravur
 62
   255
 39
0.400
  6
CONTINUOUS
 10
7.19467
 20
120.03667
 30
 0
 11
7.19467
 21
118.69500
  0
LINE
  8
Gravur
 62
   255
 39
0.400
  6
CONTINUOUS
 10
8.11500
 20
119.65233
 30
 0
 11
8.11500
 21
120.03567
  0
ARC
  8
Gravur
 62
   255
 39
0.400
  6
CONTINUOUS
 10
9.07333
 20
120.03567
 30
 0
 40
0.95833
 50
0.00000
 51
180.00000
  0
LINE
  8
Gravur
 62
   255
 39
0.400
  6
CONTINUOUS
 10
10.03167
 20
120.03567
 30
 0
 11
10.03167
 21
119.65233
  0
ARC
  8
Gravur
 62
   255
 39
0.400
  6
CONTINUOUS
 10
9.07333
 20
119.65233
 30
 0
 40
0.95833
 50
-180.00000
 51
0.00000
  0
LINE
  8
Gravur
 62
   255
 39
0.400
  6
CONTINUOUS
 10
10.95200
 20
122.14400
 30
 0
 11
10.95200
 21
121.95233
  0
LINE
  8
Gravur
 62
   255
 39
0.400
  6
CONTINUOUS
 10
10.95200
 20
120.99400
 30
 0
 11
10.95200
 21
118.69400
  0
LINE
  8
Gravur
 62
   255
 39
0.400
  6
CONTINUOUS
 10
11.87200
 20
122.14400
 30
 0
 11
11.87200
 21
118.69400
  0
LINE
  8
Gravur
 62
   255
 39
0.400
  6
CONTINUOUS
 10
11.87200
 20
118.69400
 30
 0
 11
11.87200
 21
119.46067
  0
LINE
  8
Gravur
 62
   255
 39
0.400
  6
CONTINUOUS
 10
11.87200
 20
119.46067
 30
 0
 11
13.78867
 21
120.99400
  0
LINE
  8
Gravur
 62
   255
 39
0.400
  6
CONTINUOUS
 10
13.78867
 20
120.99400
 30
 0
 11
12.63867
 21
120.07400
  0
LINE
  8
Gravur
 62
   255
 39
0.400
  6
CONTINUOUS
 10
12.63867
 20
120.07400
 30
 0
 11
13.78867
 21
118.69400
  0
LINE
  8
Gravur
 62
   255
 39
0.400
  6
CONTINUOUS
 10
14.70900
 20
122.14400
 30
 0
 11
14.70900
 21
121.95233
  0
LINE
  8
Gravur
 62
   255
 39
0.400
  6
CONTINUOUS
 10
14.70900
 20
120.99400
 30
 0
 11
14.70900
 21
118.69400
  0
ARC
  8
Gravur
 62
   255
 39
0.400
  6
CONTINUOUS
 10
16.49961
 20
119.96934
 30
 0
 40
1.30242
 50
228.05192
 51
293.02344
  0
ARC
  8
Gravur
 62
   255
 39
0.400
  6
CONTINUOUS
 10
16.81727
 20
119.22348
 30
 0
 40
0.49173
 50
292.94873
 51
431.82316
  0
LINE
  8
Gravur
 62
   255
 39
0.400
  6
CONTINUOUS
 10
16.97067
 20
119.69067
 30
 0
 11
15.93567
 21
120.03567
  0
ARC
  8
Gravur
 62
   255
 39
0.400
  6
CONTINUOUS
 10
16.07374
 20
120.45497
 30
 0
 40
0.44145
 50
119.10762
 51
251.77304
  0
ARC
  8
Gravur
 62
   255
 39
0.400
  6
CONTINUOUS
 10
16.52713
 20
119.65845
 30
 0
 40
1.35795
 50
54.50145
 51
119.47297
  0
LINE
  8
Gravur
 62
   255
 39
0.400
  6
CONTINUOUS
 10
20.68900
 20
118.69400
 30
 0
 11
20.68900
 21
122.14400
  0
LINE
  8
Gravur
 62
   255
 39
0.400
  6
CONTINUOUS
 10
20.68900
 20
122.14400
 30
 0
 11
22.98900
 21
118.69400
  0
LINE
  8
Gravur
 62
   255
 39
0.400
  6
CONTINUOUS
 10
22.98900
 20
118.69400
 30
 0
 11
22.98900
 21
122.14400
  0
LINE
  8
Gravur
 62
   255
 39
0.400
  6
CONTINUOUS
 10
23.90900
 20
119.65233
 30
 0
 11
23.90900
 21
120.03567
  0
ARC
  8
Gravur
 62
   255
 39
0.400
  6
CONTINUOUS
 10
24.86733
 20
120.03567
 30
 0
 40
0.95833
 50
0.00000
 51
180.00000
  0
LINE
  8
Gravur
 62
   255
 39
0.400
  6
CONTINUOUS
 10
25.82567
 20
120.03567
 30
 0
 11
25.82567
 21
119.65233
  0
ARC
  8
Gravur
 62
   255
 39
0.400
  6
CONTINUOUS
 10
24.86733
 20
119.65233
 30
 0
 40
0.95833
 50
-180.00000
 51
0.00000
  0
LINE
  8
Gravur
 62
   255
 39
0.400
  6
CONTINUOUS
 10
26.74500
 20
118.69400
 30
 0
 11
26.74500
 21
120.99400
  0
LINE
  8
Gravur
 62
   255
 39
0.400
  6
CONTINUOUS
 10
26.74500
 20
120.99400
 30
 0
 11
26.74500
 21
120.22733
  0
ARC
  8
Gravur
 62
   255
 39
0.400
  6
CONTINUOUS
 10
27.51167
 20
120.22733
 30
 0
 40
0.76667
 50
0.00000
 51
180.00000
  0
LINE
  8
Gravur
 62
   255
 39
0.400
  6
CONTINUOUS
 10
28.27833
 20
120.22733
 30
 0
 11
28.27833
 21
118.69400
  0
LINE
  8
Gravur
 62
   255
 39
0.400
  6
CONTINUOUS
 10
28.27833
 20
118.69400
 30
 0
 11
28.27833
 21
120.22733
  0
ARC
  8
Gravur
 62
   255
 39
0.400
  6
CONTINUOUS
 10
29.04500
 20
120.22733
 30
 0
 40
0.76667
 50
0.00000
 51
180.00000
  0
LINE
  8
Gravur
 62
   255
 39
0.400
  6
CONTINUOUS
 10
29.81167
 20
120.22733
 30
 0
 11
29.81167
 21
118.69400
  0
LINE
  8
Gravur
 62
   255
 39
0.400
  6
CONTINUOUS
 10
32.72433
 20
120.99300
 30
 0
 11
32.72433
 21
119.65133
  0
ARC
  8
Gravur
 62
   255
 39
0.400
  6
CONTINUOUS
 10
31.72767
 20
119.65133
 30
 0
 40
0.99667
 50
-180.00000
 51
0.00000
  0
LINE
  8
Gravur
 62
   255
 39
0.400
  6
CONTINUOUS
 10
30.73100
 20
119.65133
 30
 0
 11
30.73100
 21
120.03467
  0
ARC
  8
Gravur
 62
   255
 39
0.400
  6
CONTINUOUS
 10
31.72767
 20
120.03467
 30
 0
 40
0.99667
 50
0.00000
 51
180.00000
  0
LINE
  8
Gravur
 62
   255
 39
0.400
  6
CONTINUOUS
 10
32.72433
 20
120.03467
 30
 0
 11
32.72433
 21
119.11467
  0
ARC
  8
Gravur
 62
   255
 39
0.400
  6
CONTINUOUS
 10
33.28011
 20
119.16621
 30
 0
 40
0.55816
 50
185.29897
 51
260.11981
  0
LINE
  8
Gravur
 62
   255
 39
0.400
  6
CONTINUOUS
 10
36.02067
 20
122.14200
 30
 0
 11
36.02067
 21
119.65033
  0
ARC
  8
Gravur
 62
   255
 39
0.400
  6
CONTINUOUS
 10
35.06233
 20
119.61200
 30
 0
 40
0.95910
 50
-177.70939
 51
2.29061
  0
LINE
  8
Gravur
 62
   255
 39
0.400
  6
CONTINUOUS
 10
34.10400
 20
119.57367
 30
 0
 11
34.10400
 21
120.03367
  0
ARC
  8
Gravur
 62
   255
 39
0.400
  6
CONTINUOUS
 10
35.06233
 20
120.03367
 30
 0
 40
0.95833
 50
0.00000
 51
180.00000
  0
LINE
  8
Gravur
 62
   255
 39
0.400
  6
CONTINUOUS
 10
36.02067
 20
120.03367
 30
 0
 11
36.02067
 21
118.69200
  0
ARC
  8
Gravur
 62
   255
 39
0.400
  6
CONTINUOUS
 10
37.81061
 20
119.96634
 30
 0
 40
1.30242
 50
228.05192
 51
293.02344
  0
ARC
  8
Gravur
 62
   255
 39
0.400
  6
CONTINUOUS
 10
38.12827
 20
119.22048
 30
 0
 40
0.49173
 50
292.94873
 51
431.82316
  0
LINE
  8
Gravur
 62
   255
 39
0.400
  6
CONTINUOUS
 10
38.28167
 20
119.68767
 30
 0
 11
37.24667
 21
120.03267
  0
ARC
  8
Gravur
 62
   255
 39
0.400
  6
CONTINUOUS
 10
37.38474
 20
120.45197
 30
 0
 40
0.44145
 50
119.10762
 51
251.77304
  0
ARC
  8
Gravur
 62
   255
 39
0.400
  6
CONTINUOUS
 10
37.83813
 20
119.65545
 30
 0
 40
1.35795
 50
54.50145
 51
119.47297
  0
LINE
  8
Gravur
 62
   7
 39
0.600
  6
CONTINUOUS
 10
10.73833
 20
113.00000
 30
 0
 11
10.73833
 21
117.30000
  0
LINE
  8
Gravur
 62
   7
 39
0.600
  6
CONTINUOUS
 10
10.73833
 20
117.30000
 30
 0
 11
12.31500
 21
117.30000
  0
ARC
  8
Gravur
 62
   7
 39
0.600
  6
CONTINUOUS
 10
12.31500
 20
116.22500
 30
 0
 40
1.07500
 50
-90.00000
 51
90.00000
  0
LINE
  8
Gravur
 62
   7
 39
0.600
  6
CONTINUOUS
 10
12.31500
 20
115.15000
 30
 0
 11
10.73833
 21
115.15000
  0
LINE
  8
Gravur
 62
   7
 39
0.600
  6
CONTINUOUS
 10
14.46533
 20
117.30000
 30
 0
 11
14.46533
 21
113.57333
  0
ARC
  8
Gravur
 62
   7
 39
0.600
  6
CONTINUOUS
 10
15.04803
 20
113.57317
 30
 0
 40
0.58270
 50
179.98432
 51
259.62682
  0
LINE
  8
Gravur
 62
   7
 39
0.600
  6
CONTINUOUS
 10
18.57478
 20
115.86667
 30
 0
 11
18.57478
 21
114.19444
  0
ARC
  8
Gravur
 62
   7
 39
0.600
  6
CONTINUOUS
 10
17.33256
 20
114.19444
 30
 0
 40
1.24222
 50
-180.00000
 51
0.00000
  0
LINE
  8
Gravur
 62
   7
 39
0.600
  6
CONTINUOUS
 10
16.09033
 20
114.19444
 30
 0
 11
16.09033
 21
114.67222
  0
ARC
  8
Gravur
 62
   7
 39
0.600
  6
CONTINUOUS
 10
17.33256
 20
114.67222
 30
 0
 40
1.24222
 50
0.00000
 51
180.00000
  0
LINE
  8
Gravur
 62
   7
 39
0.600
  6
CONTINUOUS
 10
18.57478
 20
114.67222
 30
 0
 11
18.57478
 21
113.52556
  0
ARC
  8
Gravur
 62
   7
 39
0.600
  6
CONTINUOUS
 10
19.26748
 20
113.58980
 30
 0
 40
0.69568
 50
185.29897
 51
260.11981
  0
LINE
  8
Gravur
 62
   7
 39
0.600
  6
CONTINUOUS
 10
20.29533
 20
112.99900
 30
 0
 11
20.29533
 21
115.86567
  0
LINE
  8
Gravur
 62
   7
 39
0.600
  6
CONTINUOUS
 10
20.29533
 20
115.86567
 30
 0
 11
20.29533
 21
114.67122
  0
ARC
  8
Gravur
 62
   7
 39
0.600
  6
CONTINUOUS
 10
21.48978
 20
114.67122
 30
 0
 40
1.19444
 50
0.00000
 51
180.00000
  0
LINE
  8
Gravur
 62
   7
 39
0.600
  6
CONTINUOUS
 10
22.68422
 20
114.67122
 30
 0
 11
22.68422
 21
112.99900
  0
ARC
  8
Gravur
 62
   7
 39
0.600
  6
CONTINUOUS
 10
25.01487
 20
114.67842
 30
 0
 40
1.18456
 50
42.74595
 51
180.39666
  0
LINE
  8
Gravur
 62
   7
 39
0.600
  6
CONTINUOUS
 10
23.83033
 20
114.67022
 30
 0
 11
23.83033
 21
114.19244
  0
ARC
  8
Gravur
 62
   7
 39
0.600
  6
CONTINUOUS
 10
25.01727
 20
114.19343
 30
 0
 40
1.18693
 50
180.04758
 51
328.39092
  0
LINE
  8
Gravur
 62
   7
 39
0.600
  6
CONTINUOUS
 10
27.17433
 20
117.29700
 30
 0
 11
27.17433
 21
112.99700
  0
LINE
  8
Gravur
 62
   7
 39
0.600
  6
CONTINUOUS
 10
27.17433
 20
112.99700
 30
 0
 11
27.17433
 21
113.95256
  0
LINE
  8
Gravur
 62
   7
 39
0.600
  6
CONTINUOUS
 10
27.17433
 20
113.95256
 30
 0
 11
29.56322
 21
115.86367
  0
LINE
  8
Gravur
 62
   7
 39
0.600
  6
CONTINUOUS
 10
29.56322
 20
115.86367
 30
 0
 11
28.12989
 21
114.71700
  0
LINE
  8
Gravur
 62
   7
 39
0.600
  6
CONTINUOUS
 10
28.12989
 20
114.71700
 30
 0
 11
29.56322
 21
112.99700
  0
ARC
  8
Gravur
 62
   255
 39
0.400
  6
CONTINUOUS
 10
6.07000
 20
80.00000
 30
 0
 40
2.00000
 50
180.00000
 51
270.00000
  0
LINE
  8
Gravur
 62
   255
 39
0.400
  6
CONTINUOUS
 10
6.07000
 20
78.00000
 30
 0
 11
13.57000
 21
78.00000
  0
ARC
  8
Gravur
 62
   255
 39
0.400
  6
CONTINUOUS
 10
13.57000
 20
80.00000
 30
 0
 40
2.00000
 50
270.00000
 51
360.00000
  0
LINE
  8
Gravur
 62
   255
 39
0.400
  6
CONTINUOUS
 10
15.57000
 20
80.00000
 30
 0
 11
15.57000
 21
109.00000
  0
ARC
  8
Gravur
 62
   255
 39
0.400
  6
CONTINUOUS
 10
13.57000
 20
109.00000
 30
 0
 40
2.00000
 50
0.00000
 51
90.00000
  0
LINE
  8
Gravur
 62
   255
 39
0.400
  6
CONTINUOUS
 10
13.57000
 20
111.00000
 30
 0
 11
6.07000
 21
111.00000
  0
ARC
  8
Gravur
 62
   255
 39
0.400
  6
CONTINUOUS
 10
6.07000
 20
109.00000
 30
 0
 40
2.00000
 50
90.00000
 51
180.00000
  0
LINE
  8
Gravur
 62
   255
 39
0.400
  6
CONTINUOUS
 10
4.07000
 20
109.00000
 30
 0
 11
4.07000
 21
80.00000
  0
ARC
  8
Gravur
 62
   255
 39
0.400
  6
CONTINUOUS
 10
26.22000
 20
80.00000
 30
 0
 40
2.00000
 50
180.00000
 51
270.00000
  0
LINE
  8
Gravur
 62
   255
 39
0.400
  6
CONTINUOUS
 10
26.22000
 20
78.00000
 30
 0
 11
33.72000
 21
78.00000
  0
ARC
  8
Gravur
 62
   255
 39
0.400
  6
CONTINUOUS
 10
33.72000
 20
80.00000
 30
 0
 40
2.00000
 50
270.00000
 51
360.00000
  0
LINE
  8
Gravur
 62
   255
 39
0.400
  6
CONTINUOUS
 10
35.72000
 20
80.00000
 30
 0
 11
35.72000
 21
109.00000
  0
ARC
  8
Gravur
 62
   255
 39
0.400
  6
CONTINUOUS
 10
33.72000
 20
109.00000
 30
 0
 40
2.00000
 50
0.00000
 51
90.00000
  0
LINE
  8
Gravur
 62
   255
 39
0.400
  6
CONTINUOUS
 10
33.72000
 20
111.00000
 30
 0
 11
26.22000
 21
111.00000
  0
ARC
  8
Gravur
 62
   255
 39
0.400
  6
CONTINUOUS
 10
26.22000
 20
109.00000
 30
 0
 40
2.00000
 50
90.00000
 51
180.00000
  0
LINE
  8
Gravur
 62
   255
 39
0.400
  6
CONTINUOUS
 10
24.22000
 20
109.00000
 30
 0
 11
24.22000
 21
80.00000
  0
ARC
  8
Gravur
 62
   7
 39
0.400
  6
CONTINUOUS
 10
26.73000
 20
20.72000
 30
 0
 40
2.00000
 50
180.00000
 51
270.00000
  0
LINE
  8
Gravur
 62
   7
 39
0.400
  6
CONTINUOUS
 10
26.73000
 20
18.72000
 30
 0
 11
33.73000
 21
18.72000
  0
ARC
  8
Gravur
 62
   7
 39
0.400
  6
CONTINUOUS
 10
33.73000
 20
20.72000
 30
 0
 40
2.00000
 50
270.00000
 51
360.00000
  0
LINE
  8
Gravur
 62
   7
 39
0.400
  6
CONTINUOUS
 10
35.73000
 20
20.72000
 30
 0
 11
35.73000
 21
27.72000
  0
ARC
  8
Gravur
 62
   7
 39
0.400
  6
CONTINUOUS
 10
33.73000
 20
27.72000
 30
 0
 40
2.00000
 50
0.00000
 51
90.00000
  0
LINE
  8
Gravur
 62
   7
 39
0.400
  6
CONTINUOUS
 10
33.73000
 20
29.72000
 30
 0
 11
26.73000
 21
29.72000
  0
ARC
  8
Gravur
 62
   7
 39
0.400
  6
CONTINUOUS
 10
26.73000
 20
27.72000
 30
 0
 40
2.00000
 50
90.00000
 51
180.00000
  0
LINE
  8
Gravur
 62
   7
 39
0.400
  6
CONTINUOUS
 10
24.73000
 20
27.72000
 30
 0
 11
24.73000
 21
20.72000
  0
ARC
  8
Gravur
 62
   255
 39
0.400
  6
CONTINUOUS
 10
6.57000
 20
20.72000
 30
 0
 40
2.00000
 50
180.00000
 51
270.00000
  0
LINE
  8
Gravur
 62
   255
 39
0.400
  6
CONTINUOUS
 10
6.57000
 20
18.72000
 30
 0
 11
13.57000
 21
18.72000
  0
ARC
  8
Gravur
 62
   255
 39
0.400
  6
CONTINUOUS
 10
13.57000
 20
20.72000
 30
 0
 40
2.00000
 50
270.00000
 51
360.00000
  0
LINE
  8
Gravur
 62
   255
 39
0.400
  6
CONTINUOUS
 10
15.57000
 20
20.72000
 30
 0
 11
15.57000
 21
27.72000
  0
ARC
  8
Gravur
 62
   255
 39
0.400
  6
CONTINUOUS
 10
13.57000
 20
27.72000
 30
 0
 40
2.00000
 50
0.00000
 51
90.00000
  0
LINE
  8
Gravur
 62
   255
 39
0.400
  6
CONTINUOUS
 10
13.57000
 20
29.72000
 30
 0
 11
6.57000
 21
29.72000
  0
ARC
  8
Gravur
 62
   255
 39
0.400
  6
CONTINUOUS
 10
6.57000
 20
27.72000
 30
 0
 40
2.00000
 50
90.00000
 51
180.00000
  0
LINE
  8
Gravur
 62
   255
 39
0.400
  6
CONTINUOUS
 10
4.57000
 20
27.72000
 30
 0
 11
4.57000
 21
20.72000
  0
ARC
  8
Gravur
 62
   7
 39
0.400
  6
CONTINUOUS
 10
25.69477
 20
96.72061
 30
 0
 40
0.70606
 50
42.74595
 51
180.39666
  0
LINE
  8
Gravur
 62
   7
 39
0.400
  6
CONTINUOUS
 10
24.98873
 20
96.71572
 30
 0
 11
24.98873
 21
96.43094
  0
ARC
  8
Gravur
 62
   7
 39
0.400
  6
CONTINUOUS
 10
25.69620
 20
96.43153
 30
 0
 40
0.70747
 50
180.04758
 51
328.39092
  0
LINE
  8
Gravur
 62
   7
 39
0.400
  6
CONTINUOUS
 10
26.98273
 20
98.28200
 30
 0
 11
26.98273
 21
95.71900
  0
LINE
  8
Gravur
 62
   7
 39
0.400
  6
CONTINUOUS
 10
26.98273
 20
95.71900
 30
 0
 11
26.98273
 21
96.71572
  0
ARC
  8
Gravur
 62
   7
 39
0.400
  6
CONTINUOUS
 10
27.69468
 20
96.71572
 30
 0
 40
0.71194
 50
0.00000
 51
180.00000
  0
LINE
  8
Gravur
 62
   7
 39
0.400
  6
CONTINUOUS
 10
28.40662
 20
96.71572
 30
 0
 11
28.40662
 21
95.71900
  0
LINE
  8
Gravur
 62
   7
 39
0.400
  6
CONTINUOUS
 10
30.57158
 20
97.42767
 30
 0
 11
30.57158
 21
96.43094
  0
ARC
  8
Gravur
 62
   7
 39
0.400
  6
CONTINUOUS
 10
29.83116
 20
96.43094
 30
 0
 40
0.74042
 50
-180.00000
 51
0.00000
  0
LINE
  8
Gravur
 62
   7
 39
0.400
  6
CONTINUOUS
 10
29.09073
 20
96.43094
 30
 0
 11
29.09073
 21
96.71572
  0
ARC
  8
Gravur
 62
   7
 39
0.400
  6
CONTINUOUS
 10
29.83116
 20
96.71572
 30
 0
 40
0.74042
 50
0.00000
 51
180.00000
  0
LINE
  8
Gravur
 62
   7
 39
0.400
  6
CONTINUOUS
 10
30.57158
 20
96.71572
 30
 0
 11
30.57158
 21
96.03226
  0
ARC
  8
Gravur
 62
   7
 39
0.400
  6
CONTINUOUS
 10
30.98446
 20
96.07055
 30
 0
 40
0.41466
 50
185.29897
 51
260.11981
  0
LINE
  8
Gravur
 62
   7
 39
0.400
  6
CONTINUOUS
 10
31.59673
 20
96.43194
 30
 0
 11
31.59673
 21
96.71672
  0
ARC
  8
Gravur
 62
   7
 39
0.400
  6
CONTINUOUS
 10
32.30868
 20
96.71672
 30
 0
 40
0.71194
 50
0.00000
 51
180.00000
  0
LINE
  8
Gravur
 62
   7
 39
0.400
  6
CONTINUOUS
 10
33.02062
 20
96.71672
 30
 0
 11
33.02062
 21
96.43194
  0
ARC
  8
Gravur
 62
   7
 39
0.400
  6
CONTINUOUS
 10
32.30868
 20
96.43194
 30
 0
 40
0.71194
 50
-180.00000
 51
0.00000
  0
ARC
  8
Gravur
 62
   7
 39
0.400
  6
CONTINUOUS
 10
34.35051
 20
96.66745
 30
 0
 40
0.96757
 50
228.05192
 51
293.02344
  0
ARC
  8
Gravur
 62
   7
 39
0.400
  6
CONTINUOUS
 10
34.58650
 20
96.11335
 30
 0
 40
0.36530
 50
292.94873
 51
431.82316
  0
LINE
  8
Gravur
 62
   7
 39
0.400
  6
CONTINUOUS
 10
34.70046
 20
96.46042
 30
 0
 11
33.93156
 21
96.71672
  0
ARC
  8
Gravur
 62
   7
 39
0.400
  6
CONTINUOUS
 10
34.03413
 20
97.02822
 30
 0
 40
0.32795
 50
119.10762
 51
251.77304
  0
ARC
  8
Gravur
 62
   7
 39
0.400
  6
CONTINUOUS
 10
34.37095
 20
96.43649
 30
 0
 40
1.00882
 50
54.50145
 51
119.47297
  0
LINE
  8
Gravur
 62
   7
 39
0.400
  6
CONTINUOUS
 10
25.21558
 20
94.04167
 30
 0
 11
25.21558
 21
93.04494
  0
ARC
  8
Gravur
 62
   7
 39
0.400
  6
CONTINUOUS
 10
24.47516
 20
93.04494
 30
 0
 40
0.74042
 50
-180.00000
 51
0.00000
  0
LINE
  8
Gravur
 62
   7
 39
0.400
  6
CONTINUOUS
 10
23.73473
 20
93.04494
 30
 0
 11
23.73473
 21
93.32972
  0
ARC
  8
Gravur
 62
   7
 39
0.400
  6
CONTINUOUS
 10
24.47516
 20
93.32972
 30
 0
 40
0.74042
 50
0.00000
 51
180.00000
  0
LINE
  8
Gravur
 62
   7
 39
0.400
  6
CONTINUOUS
 10
25.21558
 20
93.32972
 30
 0
 11
25.21558
 21
92.64626
  0
ARC
  8
Gravur
 62
   7
 39
0.400
  6
CONTINUOUS
 10
25.62846
 20
92.68455
 30
 0
 40
0.41466
 50
185.29897
 51
260.11981
  0
LINE
  8
Gravur
 62
   7
 39
0.400
  6
CONTINUOUS
 10
26.24173
 20
92.33300
 30
 0
 11
26.24173
 21
94.04167
  0
LINE
  8
Gravur
 62
   7
 39
0.400
  6
CONTINUOUS
 10
26.24173
 20
94.04167
 30
 0
 11
26.24173
 21
93.47211
  0
ARC
  8
Gravur
 62
   7
 39
0.400
  6
CONTINUOUS
 10
26.81129
 20
93.47211
 30
 0
 40
0.56956
 50
0.00000
 51
180.00000
  0
LINE
  8
Gravur
 62
   7
 39
0.400
  6
CONTINUOUS
 10
27.38084
 20
93.47211
 30
 0
 11
27.38084
 21
92.33300
  0
LINE
  8
Gravur
 62
   7
 39
0.400
  6
CONTINUOUS
 10
27.38084
 20
92.33300
 30
 0
 11
27.38084
 21
93.47211
  0
ARC
  8
Gravur
 62
   7
 39
0.400
  6
CONTINUOUS
 10
27.95040
 20
93.47211
 30
 0
 40
0.56956
 50
0.00000
 51
180.00000
  0
LINE
  8
Gravur
 62
   7
 39
0.400
  6
CONTINUOUS
 10
28.51996
 20
93.47211
 30
 0
 11
28.51996
 21
92.33300
  0
LINE
  8
Gravur
 62
   7
 39
0.400
  6
CONTINUOUS
 10
29.20373
 20
93.04494
 30
 0
 11
29.20373
 21
93.32972
  0
ARC
  8
Gravur
 62
   7
 39
0.400
  6
CONTINUOUS
 10
29.91568
 20
93.32972
 30
 0
 40
0.71194
 50
0.00000
 51
180.00000
  0
LINE
  8
Gravur
 62
   7
 39
0.400
  6
CONTINUOUS
 10
30.62762
 20
93.32972
 30
 0
 11
30.62762
 21
93.04494
  0
ARC
  8
Gravur
 62
   7
 39
0.400
  6
CONTINUOUS
 10
29.91568
 20
93.04494
 30
 0
 40
0.71194
 50
-180.00000
 51
0.00000
  0
LINE
  8
Gravur
 62
   7
 39
0.400
  6
CONTINUOUS
 10
31.31073
 20
94.04167
 30
 0
 11
31.31073
 21
93.04494
  0
ARC
  8
Gravur
 62
   7
 39
0.400
  6
CONTINUOUS
 10
32.02268
 20
93.04494
 30
 0
 40
0.71194
 50
180.00000
 51
360.00000
  0
LINE
  8
Gravur
 62
   7
 39
0.400
  6
CONTINUOUS
 10
32.73462
 20
93.04494
 30
 0
 11
32.73462
 21
92.33300
  0
LINE
  8
Gravur
 62
   7
 39
0.400
  6
CONTINUOUS
 10
32.73462
 20
92.33300
 30
 0
 11
32.73462
 21
94.04167
  0
LINE
  8
Gravur
 62
   7
 39
0.400
  6
CONTINUOUS
 10
33.41773
 20
92.33300
 30
 0
 11
33.41773
 21
94.04167
  0
LINE
  8
Gravur
 62
   7
 39
0.400
  6
CONTINUOUS
 10
33.41773
 20
94.04167
 30
 0
 11
33.41773
 21
93.32972
  0
ARC
  8
Gravur
 62
   7
 39
0.400
  6
CONTINUOUS
 10
34.12968
 20
93.32972
 30
 0
 40
0.71194
 50
0.00000
 51
180.00000
  0
LINE
  8
Gravur
 62
   7
 39
0.400
  6
CONTINUOUS
 10
34.84162
 20
93.32972
 30
 0
 11
34.84162
 21
92.33300
  0
LINE
  8
Gravur
 62
   7
 39
0.400
  6
CONTINUOUS
 10
35.78103
 20
94.89600
 30
 0
 11
35.78103
 21
94.04167
  0
LINE
  8
Gravur
 62
   7
 39
0.400
  6
CONTINUOUS
 10
35.78103
 20
94.04167
 30
 0
 11
36.20820
 21
94.04167
  0
LINE
  8
Gravur
 62
   7
 39
0.400
  6
CONTINUOUS
 10
36.20820
 20
94.04167
 30
 0
 11
35.49626
 21
94.04167
  0
LINE
  8
Gravur
 62
   7
 39
0.400
  6
CONTINUOUS
 10
35.49626
 20
94.04167
 30
 0
 11
35.78103
 21
94.04167
  0
LINE
  8
Gravur
 62
   7
 39
0.400
  6
CONTINUOUS
 10
35.78103
 20
94.04167
 30
 0
 11
35.78103
 21
92.67473
  0
ARC
  8
Gravur
 62
   7
 39
0.400
  6
CONTINUOUS
 10
36.12835
 20
92.67464
 30
 0
 40
0.34731
 50
179.98432
 51
259.62682
  0
CIRCLE
  8
Kontur
 62
   7
 39
0.100
  6
CONTINUOUS
 10
10.07500
 20
105.00000
 30
 0
 40
3.50000
  0
CIRCLE
  8
Kontur
 62
   7
 39
0.100
  6
CONTINUOUS
 10
30.22500
 20
105.00000
 30
 0
 40
3.50000
  0
CIRCLE
  8
Kontur
 62
   7
 39
0.100
  6
CONTINUOUS
 10
9.57000
 20
84.18000
 30
 0
 40
4.00000
  0
CIRCLE
  8
Kontur
 62
   7
 39
0.100
  6
CONTINUOUS
 10
29.73000
 20
84.18000
 30
 0
 40
4.00000
  0
CIRCLE
  8
Kontur
 62
   7
 39
0.100
  6
CONTINUOUS
 10
9.57000
 20
64.36000
 30
 0
 40
4.00000
  0
CIRCLE
  8
Kontur
 62
   7
 39
0.100
  6
CONTINUOUS
 10
29.73000
 20
64.36000
 30
 0
 40
4.00000
  0
CIRCLE
  8
Kontur
 62
   7
 39
0.100
  6
CONTINUOUS
 10
9.57000
 20
44.04000
 30
 0
 40
4.00000
  0
CIRCLE
  8
Kontur
 62
   7
 39
0.100
  6
CONTINUOUS
 10
29.73000
 20
44.04000
 30
 0
 40
4.00000
  0
CIRCLE
  8
Kontur
 62
   7
 39
0.100
  6
CONTINUOUS
 10
10.07000
 20
24.22000
 30
 0
 40
3.50000
  0
CIRCLE
  8
Kontur
 62
   7
 39
0.100
  6
CONTINUOUS
 10
30.23000
 20
24.22000
 30
 0
 40
3.50000
  0
CIRCLE
  8
Kontur
 62
   7
 39
0.100
  6
CONTINUOUS
 10
7.50000
 20
3.00000
 30
 0
 40
1.60000
  0
CIRCLE
  8
Kontur
 62
   7
 39
0.100
  6
CONTINUOUS
 10
32.80000
 20
3.00000
 30
 0
 40
1.60000
  0
CIRCLE
  8
Kontur
 62
   7
 39
0.100
  6
CONTINUOUS
 10
32.80000
 20
125.40000
 30
 0
 40
1.60000
  0
CIRCLE
  8
Kontur
 62
   7
 39
0.100
  6
CONTINUOUS
 10
7.50000
 20
125.40000
 30
 0
 40
1.60000
  0
LINE
  8
Bezugspunkte
 62
   1
 39
0.100
  6
CONTINUOUS
 10
-0.52400
 20
0.00000
 30
 0
 11
0.52400
 21
0.00000
  0
LINE
  8
Bezugspunkte
 62
   1
 39
0.100
  6
CONTINUOUS
 10
0.00000
 20
-0.52400
 30
 0
 11
0.00000
 21
0.52400
  0
LINE
  8
Bezugspunkte
 62
   1
 39
0.100
  6
CONTINUOUS
 10
9.55100
 20
105.00000
 30
 0
 11
10.59900
 21
105.00000
  0
LINE
  8
Bezugspunkte
 62
   1
 39
0.100
  6
CONTINUOUS
 10
10.07500
 20
104.47600
 30
 0
 11
10.07500
 21
105.52400
  0
LINE
  8
Bezugspunkte
 62
   1
 39
0.100
  6
CONTINUOUS
 10
29.70100
 20
105.00000
 30
 0
 11
30.74900
 21
105.00000
  0
LINE
  8
Bezugspunkte
 62
   1
 39
0.100
  6
CONTINUOUS
 10
30.22500
 20
104.47600
 30
 0
 11
30.22500
 21
105.52400
  0
LINE
  8
Bezugspunkte
 62
   1
 39
0.100
  6
CONTINUOUS
 10
9.04600
 20
84.18000
 30
 0
 11
10.09400
 21
84.18000
  0
LINE
  8
Bezugspunkte
 62
   1
 39
0.100
  6
CONTINUOUS
 10
9.57000
 20
83.65600
 30
 0
 11
9.57000
 21
84.70400
  0
LINE
  8
Bezugspunkte
 62
   1
 39
0.100
  6
CONTINUOUS
 10
29.20600
 20
84.18000
 30
 0
 11
30.25400
 21
84.18000
  0
LINE
  8
Bezugspunkte
 62
   1
 39
0.100
  6
CONTINUOUS
 10
29.73000
 20
83.65600
 30
 0
 11
29.73000
 21
84.70400
  0
LINE
  8
Bezugspunkte
 62
   1
 39
0.100
  6
CONTINUOUS
 10
9.04600
 20
64.36000
 30
 0
 11
10.09400
 21
64.36000
  0
LINE
  8
Bezugspunkte
 62
   1
 39
0.100
  6
CONTINUOUS
 10
9.57000
 20
63.83600
 30
 0
 11
9.57000
 21
64.88400
  0
LINE
  8
Bezugspunkte
 62
   1
 39
0.100
  6
CONTINUOUS
 10
29.20600
 20
64.36000
 30
 0
 11
30.25400
 21
64.36000
  0
LINE
  8
Bezugspunkte
 62
   1
 39
0.100
  6
CONTINUOUS
 10
29.73000
 20
63.83600
 30
 0
 11
29.73000
 21
64.88400
  0
LINE
  8
Bezugspunkte
 62
   1
 39
0.100
  6
CONTINUOUS
 10
9.04600
 20
44.04000
 30
 0
 11
10.09400
 21
44.04000
  0
LINE
  8
Bezugspunkte
 62
   1
 39
0.100
  6
CONTINUOUS
 10
9.57000
 20
43.51600
 30
 0
 11
9.57000
 21
44.56400
  0
LINE
  8
Bezugspunkte
 62
   1
 39
0.100
  6
CONTINUOUS
 10
29.20600
 20
44.04000
 30
 0
 11
30.25400
 21
44.04000
  0
LINE
  8
Bezugspunkte
 62
   1
 39
0.100
  6
CONTINUOUS
 10
29.73000
 20
43.51600
 30
 0
 11
29.73000
 21
44.56400
  0
LINE
  8
Bezugspunkte
 62
   1
 39
0.100
  6
CONTINUOUS
 10
9.54600
 20
24.22000
 30
 0
 11
10.59400
 21
24.22000
  0
LINE
  8
Bezugspunkte
 62
   1
 39
0.100
  6
CONTINUOUS
 10
10.07000
 20
23.69600
 30
 0
 11
10.07000
 21
24.74400
  0
LINE
  8
Bezugspunkte
 62
   1
 39
0.100
  6
CONTINUOUS
 10
29.70600
 20
24.22000
 30
 0
 11
30.75400
 21
24.22000
  0
LINE
  8
Bezugspunkte
 62
   1
 39
0.100
  6
CONTINUOUS
 10
30.23000
 20
23.69600
 30
 0
 11
30.23000
 21
24.74400
  0
LINE
  8
Bezugspunkte
 62
   1
 39
0.100
  6
CONTINUOUS
 10
9.29600
 20
93.55000
 30
 0
 11
10.34400
 21
93.55000
  0
LINE
  8
Bezugspunkte
 62
   1
 39
0.100
  6
CONTINUOUS
 10
9.82000
 20
93.02600
 30
 0
 11
9.82000
 21
94.07400
  0
LINE
  8
Bezugspunkte
 62
   1
 39
0.100
  6
CONTINUOUS
 10
19.62600
 20
59.36000
 30
 0
 11
20.67400
 21
59.36000
  0
LINE
  8
Bezugspunkte
 62
   1
 39
0.100
  6
CONTINUOUS
 10
20.15000
 20
58.83600
 30
 0
 11
20.15000
 21
59.88400
  0
LINE
  8
Bezugspunkte
 62
   1
 39
0.100
  6
CONTINUOUS
 10
19.62600
 20
39.04000
 30
 0
 11
20.67400
 21
39.04000
  0
LINE
  8
Bezugspunkte
 62
   1
 39
0.100
  6
CONTINUOUS
 10
20.15000
 20
38.51600
 30
 0
 11
20.15000
 21
39.56400
  0
LINE
  8
Bezugspunkte
 62
   1
 39
0.100
  6
CONTINUOUS
 10
9.54600
 20
16.22000
 30
 0
 11
10.59400
 21
16.22000
  0
LINE
  8
Bezugspunkte
 62
   1
 39
0.100
  6
CONTINUOUS
 10
10.07000
 20
15.69600
 30
 0
 11
10.07000
 21
16.74400
  0
LINE
  8
Bezugspunkte
 62
   1
 39
0.100
  6
CONTINUOUS
 10
29.70600
 20
16.22000
 30
 0
 11
30.75400
 21
16.22000
  0
LINE
  8
Bezugspunkte
 62
   1
 39
0.100
  6
CONTINUOUS
 10
30.23000
 20
15.69600
 30
 0
 11
30.23000
 21
16.74400
  0
LINE
  8
Bezugspunkte
 62
   1
 39
0.100
  6
CONTINUOUS
 10
19.62600
 20
118.49500
 30
 0
 11
20.67400
 21
118.49500
  0
LINE
  8
Bezugspunkte
 62
   1
 39
0.100
  6
CONTINUOUS
 10
20.15000
 20
117.97100
 30
 0
 11
20.15000
 21
119.01900
  0
LINE
  8
Bezugspunkte
 62
   1
 39
0.100
  6
CONTINUOUS
 10
19.62600
 20
112.70000
 30
 0
 11
20.67400
 21
112.70000
  0
LINE
  8
Bezugspunkte
 62
   1
 39
0.100
  6
CONTINUOUS
 10
20.15000
 20
112.17600
 30
 0
 11
20.15000
 21
113.22400
  0
LINE
  8
Bezugspunkte
 62
   1
 39
0.100
  6
CONTINUOUS
 10
9.29600
 20
94.50000
 30
 0
 11
10.34400
 21
94.50000
  0
LINE
  8
Bezugspunkte
 62
   1
 39
0.100
  6
CONTINUOUS
 10
9.82000
 20
93.97600
 30
 0
 11
9.82000
 21
95.02400
  0
LINE
  8
Bezugspunkte
 62
   1
 39
0.100
  6
CONTINUOUS
 10
29.44600
 20
94.50000
 30
 0
 11
30.49400
 21
94.50000
  0
LINE
  8
Bezugspunkte
 62
   1
 39
0.100
  6
CONTINUOUS
 10
29.97000
 20
93.97600
 30
 0
 11
29.97000
 21
95.02400
  0
LINE
  8
Bezugspunkte
 62
   1
 39
0.100
  6
CONTINUOUS
 10
29.70600
 20
24.22000
 30
 0
 11
30.75400
 21
24.22000
  0
LINE
  8
Bezugspunkte
 62
   1
 39
0.100
  6
CONTINUOUS
 10
30.23000
 20
23.69600
 30
 0
 11
30.23000
 21
24.74400
  0
LINE
  8
Bezugspunkte
 62
   1
 39
0.100
  6
CONTINUOUS
 10
9.54600
 20
24.22000
 30
 0
 11
10.59400
 21
24.22000
  0
LINE
  8
Bezugspunkte
 62
   1
 39
0.100
  6
CONTINUOUS
 10
10.07000
 20
23.69600
 30
 0
 11
10.07000
 21
24.74400
  0
LINE
  8
Bezugspunkte
 62
   1
 39
0.100
  6
CONTINUOUS
 10
29.44600
 20
97.00000
 30
 0
 11
30.49400
 21
97.00000
  0
LINE
  8
Bezugspunkte
 62
   1
 39
0.100
  6
CONTINUOUS
 10
29.97000
 20
96.47600
 30
 0
 11
29.97000
 21
97.52400
  0
LINE
  8
Bezugspunkte
 62
   1
 39
0.100
  6
CONTINUOUS
 10
19.62600
 20
125.39500
 30
 0
 11
20.67400
 21
125.39500
  0
LINE
  8
Bezugspunkte
 62
   1
 39
0.100
  6
CONTINUOUS
 10
20.15000
 20
124.87100
 30
 0
 11
20.15000
 21
125.91900
  0
LINE
  8
Bezugspunkte
 62
   1
 39
0.100
  6
CONTINUOUS
 10
19.62600
 20
3.00000
 30
 0
 11
20.67400
 21
3.00000
  0
LINE
  8
Bezugspunkte
 62
   1
 39
0.100
  6
CONTINUOUS
 10
20.15000
 20
2.47600
 30
 0
 11
20.15000
 21
3.52400
  0
LINE
  8
Bezugspunkte
 62
   1
 39
0.100
  6
CONTINUOUS
 10
6.97600
 20
3.00000
 30
 0
 11
8.02400
 21
3.00000
  0
LINE
  8
Bezugspunkte
 62
   1
 39
0.100
  6
CONTINUOUS
 10
7.50000
 20
2.47600
 30
 0
 11
7.50000
 21
3.52400
  0
LINE
  8
Bezugspunkte
 62
   1
 39
0.100
  6
CONTINUOUS
 10
32.27600
 20
3.00000
 30
 0
 11
33.32400
 21
3.00000
  0
LINE
  8
Bezugspunkte
 62
   1
 39
0.100
  6
CONTINUOUS
 10
32.80000
 20
2.47600
 30
 0
 11
32.80000
 21
3.52400
  0
LINE
  8
Bezugspunkte
 62
   1
 39
0.100
  6
CONTINUOUS
 10
32.27600
 20
125.40000
 30
 0
 11
33.32400
 21
125.40000
  0
LINE
  8
Bezugspunkte
 62
   1
 39
0.100
  6
CONTINUOUS
 10
32.80000
 20
124.87600
 30
 0
 11
32.80000
 21
125.92400
  0
LINE
  8
Bezugspunkte
 62
   1
 39
0.100
  6
CONTINUOUS
 10
6.97600
 20
125.40000
 30
 0
 11
8.02400
 21
125.40000
  0
LINE
  8
Bezugspunkte
 62
   1
 39
0.100
  6
CONTINUOUS
 10
7.50000
 20
124.87600
 30
 0
 11
7.50000
 21
125.92400
  0
ENDSEC
  0
EOF
