<?xml version="1.0" encoding="UTF-8" standalone="no"?>
<svg
   xmlns:fpd="http://www.schaeffer-ag.de"
   xmlns:dc="http://purl.org/dc/elements/1.1/"
   xmlns:cc="http://creativecommons.org/ns#"
   xmlns:rdf="http://www.w3.org/1999/02/22-rdf-syntax-ns#"
   xmlns:svg="http://www.w3.org/2000/svg"
   xmlns="http://www.w3.org/2000/svg"
   xmlns:sodipodi="http://sodipodi.sourceforge.net/DTD/sodipodi-0.dtd"
   xmlns:inkscape="http://www.inkscape.org/namespaces/inkscape"
   width="40.300mm"
   height="128.400mm"
   version="1.1"
   viewBox="0 0 40.300 128.400"
   id="svg264"
   sodipodi:docname="Planck.svg"
   inkscape:version="0.92.3 (2405546, 2018-03-11)">
  <metadata
     id="metadata268">
    <rdf:RDF>
      <cc:Work
         rdf:about="">
        <dc:format>image/svg+xml</dc:format>
        <dc:type
           rdf:resource="http://purl.org/dc/dcmitype/StillImage" />
      </cc:Work>
    </rdf:RDF>
  </metadata>
  <sodipodi:namedview
     pagecolor="#ffffff"
     bordercolor="#666666"
     borderopacity="1"
     objecttolerance="10"
     gridtolerance="10"
     guidetolerance="10"
     inkscape:pageopacity="0"
     inkscape:pageshadow="2"
     inkscape:window-width="1920"
     inkscape:window-height="1057"
     id="namedview266"
     showgrid="false"
     inkscape:zoom="2.7509612"
     inkscape:cx="188.69823"
     inkscape:cy="317.70773"
     inkscape:window-x="1912"
     inkscape:window-y="1432"
     inkscape:window-maximized="1"
     inkscape:current-layer="svg264" />
  <desc
     id="desc2">Diese Zeichnung wurde mit dem Frontplatten Desinger durch den Export der Datei 'Planck.fpd' erzeugt.</desc>
  <defs
     id="defs14">
    <pattern
       id="revside-fill"
       x="1"
       y="1"
       width="1.5"
       height="1.5"
       patternUnits="userSpaceOnUse">
      <line
         x1="0"
         y1="0"
         x2="1"
         y2="1"
         style="stroke-width:0.2; stroke:black; stroke-dasharray:none;"
         id="line4" />
      <line
         x1="0"
         y1="1"
         x2="1"
         y2="0"
         style="stroke-width:0.2; stroke:black; stroke-dasharray:none;"
         id="line6" />
    </pattern>
    <pattern
       id="revside-fill-silver"
       x="1"
       y="1"
       width="1.5"
       height="1.5"
       patternUnits="userSpaceOnUse">
      <line
         x1="0"
         y1="0"
         x2="1.5"
         y2="1.5"
         style="stroke-width:0.2; stroke:#e0e0e0; stroke-dasharray:none;"
         id="line9" />
      <line
         x1="0"
         y1="1.5"
         x2="1.5"
         y2="0"
         style="stroke-width:0.2; stroke:#e0e0e0; stroke-dasharray:none;"
         id="line11" />
    </pattern>
  </defs>
  <path
     style="vector-effect:non-scaling-stroke;fill:#cccccc;fill-rule:evenodd;stroke:#000000;stroke-width:0.1mm;stroke-linecap:round;stroke-linejoin:round;stroke-opacity:1"
     inkscape:connector-curvature="0"
     id="path16"
     d="M 40.3,0 V 128.4 H 0 V 0 h 40.3" />
  <path
     style="vector-effect:non-scaling-stroke;fill:#dbebfc;fill-rule:evenodd;stroke:#336887;stroke-width:0.1mm;stroke-linecap:round;stroke-linejoin:round;stroke-opacity:1"
     inkscape:connector-curvature="0"
     id="path18"
     d="M 0,5.298 A 0.5,0.5 0 0 0 0.707,6.005 H 39.593 A 0.5,0.5 0 0 0 40.3,5.298 V 0.712 A 0.5,0.5 0 0 0 39.593,0.005 H 0.707 A 0.5,0.5 0 0 0 0,0.712 v 4.586" />
  <path
     style="vector-effect:non-scaling-stroke;fill:#dbebfc;fill-rule:evenodd;stroke:#336887;stroke-width:0.1mm;stroke-linecap:round;stroke-linejoin:round;stroke-opacity:1"
     inkscape:connector-curvature="0"
     id="path20"
     d="m 0,127.693 a 0.5,0.5 0 0 0 0.707,0.707 h 38.886 a 0.5,0.5 0 0 0 0.707,-0.707 v -4.586 A 0.5,0.5 0 0 0 39.593,122.4 H 0.707 A 0.5,0.5 0 0 0 0,123.107 v 4.586" />
  <path
     style="vector-effect:non-scaling-stroke;fill:none;fill-rule:evenodd;stroke:#000000;stroke-width:0.4mm;stroke-linecap:round;stroke-linejoin:round;stroke-opacity:1"
     inkscape:connector-curvature="0"
     id="path22"
     fpd:engraving_ral_9005="1"
     d="m 5.493,34.422 0.712,1.709 0.712,-1.709" />
  <path
     style="vector-effect:non-scaling-stroke;fill:none;fill-rule:evenodd;stroke:#000000;stroke-width:0.4mm;stroke-linecap:round;stroke-linejoin:round;stroke-opacity:1"
     inkscape:connector-curvature="0"
     id="path24"
     fpd:engraving_ral_9005="1"
     d="M 7.601,36.302 8.683,33.426" />
  <path
     style="vector-effect:non-scaling-stroke;fill:none;fill-rule:evenodd;stroke:#000000;stroke-width:0.4mm;stroke-linecap:round;stroke-linejoin:round;stroke-opacity:1"
     inkscape:connector-curvature="0"
     id="path26"
     fpd:engraving_ral_9005="1"
     d="m 9.367,35.419 v -0.285 a 0.712,0.712 0 0 1 1.424,0 v 0.285 a 0.712,0.712 0 0 1 -1.424,0" />
  <path
     style="vector-effect:non-scaling-stroke;fill:none;fill-rule:evenodd;stroke:#000000;stroke-width:0.4mm;stroke-linecap:round;stroke-linejoin:round;stroke-opacity:1"
     inkscape:connector-curvature="0"
     id="path28"
     fpd:engraving_ral_9005="1"
     d="m 12.698,34.65 a 0.706,0.706 0 0 0 -1.224,0.484 v 0.285 a 0.707,0.707 0 0 0 1.31,0.37" />
  <path
     style="vector-effect:non-scaling-stroke;fill:none;fill-rule:evenodd;stroke:#000000;stroke-width:0.4mm;stroke-linecap:round;stroke-linejoin:round;stroke-opacity:1"
     inkscape:connector-curvature="0"
     id="path30"
     fpd:engraving_ral_9005="1"
     d="m 13.723,33.568 v 0.854 h 0.427 -0.712 0.285 v 1.367 a 0.347,0.347 0 0 0 0.285,0.342" />
  <path
     style="vector-effect:non-scaling-stroke;fill:none;fill-rule:evenodd;stroke:#000000;stroke-width:0.4mm;stroke-linecap:round;stroke-linejoin:round;stroke-opacity:1"
     inkscape:connector-curvature="0"
     id="path32"
     fpd:engraving_ral_9005="1"
     d="m 16.364,71.175 v -1.851 a 0.712,0.712 0 0 1 1.424,0 v 0.285 a 0.712,0.712 0 0 1 -1.424,0 v -0.997" />
  <path
     style="vector-effect:non-scaling-stroke;fill:none;fill-rule:evenodd;stroke:#000000;stroke-width:0.4mm;stroke-linecap:round;stroke-linejoin:round;stroke-opacity:1"
     inkscape:connector-curvature="0"
     id="path34"
     fpd:engraving_ral_9005="1"
     d="M 18.472,67.758 V 67.9" />
  <path
     style="vector-effect:non-scaling-stroke;fill:none;fill-rule:evenodd;stroke:#000000;stroke-width:0.4mm;stroke-linecap:round;stroke-linejoin:round;stroke-opacity:1"
     inkscape:connector-curvature="0"
     id="path36"
     fpd:engraving_ral_9005="1"
     d="m 18.472,68.612 v 1.709" />
  <path
     style="vector-effect:non-scaling-stroke;fill:none;fill-rule:evenodd;stroke:#000000;stroke-width:0.4mm;stroke-linecap:round;stroke-linejoin:round;stroke-opacity:1"
     inkscape:connector-curvature="0"
     id="path38"
     fpd:engraving_ral_9005="1"
     d="m 19.412,67.758 v 0.854 h 0.427 -0.712 0.285 v 1.367 a 0.347,0.347 0 0 0 0.285,0.342" />
  <path
     style="vector-effect:non-scaling-stroke;fill:none;fill-rule:evenodd;stroke:#000000;stroke-width:0.4mm;stroke-linecap:round;stroke-linejoin:round;stroke-opacity:1"
     inkscape:connector-curvature="0"
     id="path40"
     fpd:engraving_ral_9005="1"
     d="m 21.746,68.84 a 0.706,0.706 0 0 0 -1.224,0.484 v 0.285 a 0.707,0.707 0 0 0 1.31,0.37" />
  <path
     style="vector-effect:non-scaling-stroke;fill:none;fill-rule:evenodd;stroke:#000000;stroke-width:0.4mm;stroke-linecap:round;stroke-linejoin:round;stroke-opacity:1"
     inkscape:connector-curvature="0"
     id="path42"
     fpd:engraving_ral_9005="1"
     d="m 22.515,67.758 v 2.563 -0.997 a 0.712,0.712 0 0 1 1.424,0 v 0.997" />
  <path
     style="vector-effect:non-scaling-stroke;fill:none;fill-rule:evenodd;stroke:#000000;stroke-width:0.4mm;stroke-linecap:round;stroke-linejoin:round;stroke-opacity:1"
     inkscape:connector-curvature="0"
     id="path44"
     fpd:engraving_ral_9005="1"
     d="m 16.506,88.078 v 1.851 a 0.713,0.713 0 0 1 -1.424,0.057 v -0.342 a 0.712,0.712 0 0 1 1.424,0 v 0.997" />
  <path
     style="vector-effect:non-scaling-stroke;fill:none;fill-rule:evenodd;stroke:#000000;stroke-width:0.4mm;stroke-linecap:round;stroke-linejoin:round;stroke-opacity:1"
     inkscape:connector-curvature="0"
     id="path46"
     fpd:engraving_ral_9005="1"
     d="m 17.19,89.787 h 1.424 v -0.143 a 0.712,0.712 0 0 0 -1.424,0 v 0.285 a 0.747,0.747 0 0 0 1.338,0.456" />
  <path
     style="vector-effect:non-scaling-stroke;fill:none;fill-rule:evenodd;stroke:#000000;stroke-width:0.4mm;stroke-linecap:round;stroke-linejoin:round;stroke-opacity:1"
     inkscape:connector-curvature="0"
     id="path48"
     fpd:engraving_ral_9005="1"
     d="m 20.522,89.159 a 0.706,0.706 0 0 0 -1.224,0.484 v 0.285 a 0.707,0.707 0 0 0 1.31,0.37" />
  <path
     style="vector-effect:non-scaling-stroke;fill:none;fill-rule:evenodd;stroke:#000000;stroke-width:0.4mm;stroke-linecap:round;stroke-linejoin:round;stroke-opacity:1"
     inkscape:connector-curvature="0"
     id="path50"
     fpd:engraving_ral_9005="1"
     d="m 22.772,88.931 v 0.997 a 0.7405,0.7405 0 0 1 -1.481,0 v -0.285 a 0.7405,0.7405 0 0 1 1.481,0 v 0.684 a 0.415,0.415 0 0 0 0.341,0.37" />
  <path
     style="vector-effect:non-scaling-stroke;fill:none;fill-rule:evenodd;stroke:#000000;stroke-width:0.4mm;stroke-linecap:round;stroke-linejoin:round;stroke-opacity:1"
     inkscape:connector-curvature="0"
     id="path52"
     fpd:engraving_ral_9005="1"
     d="m 23.797,88.93 0.683,1.624" />
  <path
     style="vector-effect:non-scaling-stroke;fill:none;fill-rule:evenodd;stroke:#000000;stroke-width:0.4mm;stroke-linecap:round;stroke-linejoin:round;stroke-opacity:1"
     inkscape:connector-curvature="0"
     id="path54"
     fpd:engraving_ral_9005="1"
     d="m 25.221,88.93 -1.026,2.307 a 0.431,0.431 0 0 1 -0.398,0.256" />
  <path
     style="vector-effect:non-scaling-stroke;fill:none;fill-rule:evenodd;stroke:#000000;stroke-width:0.4mm;stroke-linecap:round;stroke-linejoin:round;stroke-opacity:1"
     inkscape:connector-curvature="0"
     id="path56"
     fpd:engraving_ral_9005="1"
     d="m 6.313,111.98 a 0.706,0.706 0 0 0 -1.224,0.484 v 0.285 a 0.707,0.707 0 0 0 1.31,0.37" />
  <path
     style="vector-effect:non-scaling-stroke;fill:none;fill-rule:evenodd;stroke:#000000;stroke-width:0.4mm;stroke-linecap:round;stroke-linejoin:round;stroke-opacity:1"
     inkscape:connector-curvature="0"
     id="path58"
     fpd:engraving_ral_9005="1"
     d="m 7.083,110.898 v 2.563 -0.997 a 0.712,0.712 0 0 1 1.424,0 v 0.997" />
  <path
     style="vector-effect:non-scaling-stroke;fill:none;fill-rule:evenodd;stroke:#000000;stroke-width:0.4mm;stroke-linecap:round;stroke-linejoin:round;stroke-opacity:1"
     inkscape:connector-curvature="0"
     id="path60"
     fpd:engraving_ral_9005="1"
     d="m 10.672,111.752 v 0.997 a 0.7405,0.7405 0 0 1 -1.481,0 v -0.285 a 0.7405,0.7405 0 0 1 1.481,0 v 0.684 a 0.415,0.415 0 0 0 0.341,0.37" />
  <path
     style="vector-effect:non-scaling-stroke;fill:none;fill-rule:evenodd;stroke:#000000;stroke-width:0.4mm;stroke-linecap:round;stroke-linejoin:round;stroke-opacity:1"
     inkscape:connector-curvature="0"
     id="path62"
     fpd:engraving_ral_9005="1"
     d="m 11.697,112.748 v -0.285 a 0.712,0.712 0 0 1 1.424,0 v 0.285 a 0.712,0.712 0 0 1 -1.424,0" />
  <path
     style="vector-effect:non-scaling-stroke;fill:none;fill-rule:evenodd;stroke:#000000;stroke-width:0.4mm;stroke-linecap:round;stroke-linejoin:round;stroke-opacity:1"
     inkscape:connector-curvature="0"
     id="path64"
     fpd:engraving_ral_9005="1"
     d="m 13.804,113.232 a 0.968,0.968 0 0 0 1.025,0.171 0.365,0.365 0 0 0 -0.029,-0.683 l -0.768,-0.257 a 0.328,0.328 0 0 1 -0.057,-0.598 1.009,1.009 0 0 1 1.082,0.057" />
  <path
     style="vector-effect:non-scaling-stroke;fill:none;fill-rule:evenodd;stroke:#000000;stroke-width:0.4mm;stroke-linecap:round;stroke-linejoin:round;stroke-opacity:1"
     inkscape:connector-curvature="0"
     id="path66"
     fpd:engraving_ral_9005="1"
     d="m 5.059,114.284 v 0.854 H 5.486 4.774 5.059 v 1.367 a 0.347,0.347 0 0 0 0.285,0.342" />
  <path
     style="vector-effect:non-scaling-stroke;fill:none;fill-rule:evenodd;stroke:#000000;stroke-width:0.4mm;stroke-linecap:round;stroke-linejoin:round;stroke-opacity:1"
     inkscape:connector-curvature="0"
     id="path68"
     fpd:engraving_ral_9005="1"
     d="m 6.17,116.847 v -1.709 0.57 a 0.629,0.629 0 0 1 0.142,-0.399 0.406,0.406 0 0 1 0.627,0" />
  <path
     style="vector-effect:non-scaling-stroke;fill:none;fill-rule:evenodd;stroke:#000000;stroke-width:0.4mm;stroke-linecap:round;stroke-linejoin:round;stroke-opacity:1"
     inkscape:connector-curvature="0"
     id="path70"
     fpd:engraving_ral_9005="1"
     d="m 7.594,114.284 v 0.142" />
  <path
     style="vector-effect:non-scaling-stroke;fill:none;fill-rule:evenodd;stroke:#000000;stroke-width:0.4mm;stroke-linecap:round;stroke-linejoin:round;stroke-opacity:1"
     inkscape:connector-curvature="0"
     id="path72"
     fpd:engraving_ral_9005="1"
     d="m 7.594,115.138 v 1.709" />
  <path
     style="vector-effect:non-scaling-stroke;fill:none;fill-rule:evenodd;stroke:#000000;stroke-width:0.4mm;stroke-linecap:round;stroke-linejoin:round;stroke-opacity:1"
     inkscape:connector-curvature="0"
     id="path74"
     fpd:engraving_ral_9005="1"
     d="m 9.702,115.138 v 0.997 a 0.713,0.713 0 0 1 -1.424,0.057 v -0.342 a 0.712,0.712 0 0 1 1.424,0 v 1.139 a 0.718,0.718 0 0 1 -1.225,0.513" />
  <path
     style="vector-effect:non-scaling-stroke;fill:none;fill-rule:evenodd;stroke:#000000;stroke-width:0.4mm;stroke-linecap:round;stroke-linejoin:round;stroke-opacity:1"
     inkscape:connector-curvature="0"
     id="path76"
     fpd:engraving_ral_9005="1"
     d="m 11.81,115.138 v 0.997 a 0.713,0.713 0 0 1 -1.424,0.057 v -0.342 a 0.712,0.712 0 0 1 1.424,0 v 1.139 a 0.718,0.718 0 0 1 -1.225,0.513" />
  <path
     style="vector-effect:non-scaling-stroke;fill:none;fill-rule:evenodd;stroke:#000000;stroke-width:0.4mm;stroke-linecap:round;stroke-linejoin:round;stroke-opacity:1"
     inkscape:connector-curvature="0"
     id="path78"
     fpd:engraving_ral_9005="1"
     d="m 12.493,115.993 h 1.424 v -0.143 a 0.712,0.712 0 0 0 -1.424,0 v 0.285 a 0.747,0.747 0 0 0 1.338,0.456" />
  <path
     style="vector-effect:non-scaling-stroke;fill:none;fill-rule:evenodd;stroke:#000000;stroke-width:0.4mm;stroke-linecap:round;stroke-linejoin:round;stroke-opacity:1"
     inkscape:connector-curvature="0"
     id="path80"
     fpd:engraving_ral_9005="1"
     d="m 14.6,116.847 v -1.709 0.57 a 0.629,0.629 0 0 1 0.142,-0.399 0.406,0.406 0 0 1 0.627,0" />
  <path
     style="vector-effect:non-scaling-stroke;fill:none;fill-rule:evenodd;stroke:#000000;stroke-width:0.4mm;stroke-linecap:round;stroke-linejoin:round;stroke-opacity:1"
     inkscape:connector-curvature="0"
     id="path82"
     fpd:engraving_ral_9005="1"
     d="m 27.299,111.752 v 0.997 a 0.7405,0.7405 0 0 1 -1.481,0 v -0.285 a 0.7405,0.7405 0 0 1 1.481,0 v 0.684 a 0.415,0.415 0 0 0 0.341,0.37" />
  <path
     style="vector-effect:non-scaling-stroke;fill:none;fill-rule:evenodd;stroke:#000000;stroke-width:0.4mm;stroke-linecap:round;stroke-linejoin:round;stroke-opacity:1"
     inkscape:connector-curvature="0"
     id="path84"
     fpd:engraving_ral_9005="1"
     d="m 28.325,111.751 v 0.997 a 0.712,0.712 0 0 0 1.424,0 v 0.712 -1.709" />
  <path
     style="vector-effect:non-scaling-stroke;fill:none;fill-rule:evenodd;stroke:#000000;stroke-width:0.4mm;stroke-linecap:round;stroke-linejoin:round;stroke-opacity:1"
     inkscape:connector-curvature="0"
     id="path86"
     fpd:engraving_ral_9005="1"
     d="m 31.857,110.897 v 1.851 a 0.713,0.713 0 0 1 -1.424,0.057 v -0.342 a 0.712,0.712 0 0 1 1.424,0 v 0.997" />
  <path
     style="vector-effect:non-scaling-stroke;fill:none;fill-rule:evenodd;stroke:#000000;stroke-width:0.4mm;stroke-linecap:round;stroke-linejoin:round;stroke-opacity:1"
     inkscape:connector-curvature="0"
     id="path88"
     fpd:engraving_ral_9005="1"
     d="m 32.54,110.897 v 0.142" />
  <path
     style="vector-effect:non-scaling-stroke;fill:none;fill-rule:evenodd;stroke:#000000;stroke-width:0.4mm;stroke-linecap:round;stroke-linejoin:round;stroke-opacity:1"
     inkscape:connector-curvature="0"
     id="path90"
     fpd:engraving_ral_9005="1"
     d="m 32.54,111.751 v 1.709" />
  <path
     style="vector-effect:non-scaling-stroke;fill:none;fill-rule:evenodd;stroke:#000000;stroke-width:0.4mm;stroke-linecap:round;stroke-linejoin:round;stroke-opacity:1"
     inkscape:connector-curvature="0"
     id="path92"
     fpd:engraving_ral_9005="1"
     d="m 33.223,112.748 v -0.285 a 0.712,0.712 0 0 1 1.424,0 v 0.285 a 0.712,0.712 0 0 1 -1.424,0" />
  <path
     style="vector-effect:non-scaling-stroke;fill:none;fill-rule:evenodd;stroke:#000000;stroke-width:0.4mm;stroke-linecap:round;stroke-linejoin:round;stroke-opacity:1"
     inkscape:connector-curvature="0"
     id="path94"
     fpd:engraving_ral_9005="1"
     d="m 27.782,116.135 v -0.285 a 0.712,0.712 0 0 1 1.424,0 v 0.285 a 0.712,0.712 0 0 1 -1.424,0" />
  <path
     style="vector-effect:non-scaling-stroke;fill:none;fill-rule:evenodd;stroke:#000000;stroke-width:0.4mm;stroke-linecap:round;stroke-linejoin:round;stroke-opacity:1"
     inkscape:connector-curvature="0"
     id="path96"
     fpd:engraving_ral_9005="1"
     d="m 29.89,115.138 v 0.997 a 0.712,0.712 0 0 0 1.424,0 v 0.712 -1.709" />
  <path
     style="vector-effect:non-scaling-stroke;fill:none;fill-rule:evenodd;stroke:#000000;stroke-width:0.4mm;stroke-linecap:round;stroke-linejoin:round;stroke-opacity:1"
     inkscape:connector-curvature="0"
     id="path98"
     fpd:engraving_ral_9005="1"
     d="m 32.253,114.284 v 0.854 h 0.427 -0.712 0.285 v 1.367 a 0.347,0.347 0 0 0 0.285,0.342" />
  <path
     style="vector-effect:non-scaling-stroke;fill:none;fill-rule:evenodd;stroke:#000000;stroke-width:0.4mm;stroke-linecap:round;stroke-linejoin:round;stroke-opacity:1"
     inkscape:connector-curvature="0"
     id="path100"
     fpd:engraving_ral_9005="1"
     d="M 2.057,8.747 H 3.974" />
  <path
     style="vector-effect:non-scaling-stroke;fill:none;fill-rule:evenodd;stroke:#000000;stroke-width:0.4mm;stroke-linecap:round;stroke-linejoin:round;stroke-opacity:1"
     inkscape:connector-curvature="0"
     id="path102"
     fpd:engraving_ral_9005="1"
     d="m 1.674,9.705 1.342,-3.45 1.341,3.45" />
  <path
     style="vector-effect:non-scaling-stroke;fill:none;fill-rule:evenodd;stroke:#000000;stroke-width:0.4mm;stroke-linecap:round;stroke-linejoin:round;stroke-opacity:1"
     inkscape:connector-curvature="0"
     id="path104"
     fpd:engraving_ral_9005="1"
     d="m 5.278,9.705 v -2.3 0.958 a 0.9585,0.9585 0 0 1 1.917,0 v 1.342" />
  <path
     style="vector-effect:non-scaling-stroke;fill:none;fill-rule:evenodd;stroke:#000000;stroke-width:0.4mm;stroke-linecap:round;stroke-linejoin:round;stroke-opacity:1"
     inkscape:connector-curvature="0"
     id="path106"
     fpd:engraving_ral_9005="1"
     d="M 8.115,8.748 V 8.364 a 0.9585,0.9585 0 0 1 1.917,0 v 0.384 a 0.9585,0.9585 0 0 1 -1.917,0" />
  <path
     style="vector-effect:non-scaling-stroke;fill:none;fill-rule:evenodd;stroke:#000000;stroke-width:0.4mm;stroke-linecap:round;stroke-linejoin:round;stroke-opacity:1"
     inkscape:connector-curvature="0"
     id="path108"
     fpd:engraving_ral_9005="1"
     d="M 10.952,6.256 V 6.448" />
  <path
     style="vector-effect:non-scaling-stroke;fill:none;fill-rule:evenodd;stroke:#000000;stroke-width:0.4mm;stroke-linecap:round;stroke-linejoin:round;stroke-opacity:1"
     inkscape:connector-curvature="0"
     id="path110"
     fpd:engraving_ral_9005="1"
     d="m 10.952,7.406 v 2.3" />
  <path
     style="vector-effect:non-scaling-stroke;fill:none;fill-rule:evenodd;stroke:#000000;stroke-width:0.4mm;stroke-linecap:round;stroke-linejoin:round;stroke-opacity:1"
     inkscape:connector-curvature="0"
     id="path112"
     fpd:engraving_ral_9005="1"
     d="m 11.872,6.256 v 3.45 -0.767 l 1.917,-1.533 -1.15,0.92 1.15,1.38" />
  <path
     style="vector-effect:non-scaling-stroke;fill:none;fill-rule:evenodd;stroke:#000000;stroke-width:0.4mm;stroke-linecap:round;stroke-linejoin:round;stroke-opacity:1"
     inkscape:connector-curvature="0"
     id="path114"
     fpd:engraving_ral_9005="1"
     d="M 14.709,6.256 V 6.448" />
  <path
     style="vector-effect:non-scaling-stroke;fill:none;fill-rule:evenodd;stroke:#000000;stroke-width:0.4mm;stroke-linecap:round;stroke-linejoin:round;stroke-opacity:1"
     inkscape:connector-curvature="0"
     id="path116"
     fpd:engraving_ral_9005="1"
     d="m 14.709,7.406 v 2.3" />
  <path
     style="vector-effect:non-scaling-stroke;fill:none;fill-rule:evenodd;stroke:#000000;stroke-width:0.4mm;stroke-linecap:round;stroke-linejoin:round;stroke-opacity:1"
     inkscape:connector-curvature="0"
     id="path118"
     fpd:engraving_ral_9005="1"
     d="m 15.629,9.399 a 1.302,1.302 0 0 0 1.38,0.23 0.492,0.492 0 0 0 -0.038,-0.92 L 15.936,8.364 a 0.441,0.441 0 0 1 -0.077,-0.805 1.358,1.358 0 0 1 1.457,0.077" />
  <path
     style="vector-effect:non-scaling-stroke;fill:none;fill-rule:evenodd;stroke:#000000;stroke-width:0.4mm;stroke-linecap:round;stroke-linejoin:round;stroke-opacity:1"
     inkscape:connector-curvature="0"
     id="path120"
     fpd:engraving_ral_9005="1"
     d="m 20.689,9.706 v -3.45 l 2.3,3.45 v -3.45" />
  <path
     style="vector-effect:non-scaling-stroke;fill:none;fill-rule:evenodd;stroke:#000000;stroke-width:0.4mm;stroke-linecap:round;stroke-linejoin:round;stroke-opacity:1"
     inkscape:connector-curvature="0"
     id="path122"
     fpd:engraving_ral_9005="1"
     d="M 23.909,8.748 V 8.364 a 0.9585,0.9585 0 0 1 1.917,0 v 0.384 a 0.9585,0.9585 0 0 1 -1.917,0" />
  <path
     style="vector-effect:non-scaling-stroke;fill:none;fill-rule:evenodd;stroke:#000000;stroke-width:0.4mm;stroke-linecap:round;stroke-linejoin:round;stroke-opacity:1"
     inkscape:connector-curvature="0"
     id="path124"
     fpd:engraving_ral_9005="1"
     d="m 26.745,9.706 v -2.3 0.767 a 0.767,0.767 0 0 1 1.533,0 V 9.706 8.173 a 0.767,0.767 0 0 1 1.534,0 v 1.533" />
  <path
     style="vector-effect:non-scaling-stroke;fill:none;fill-rule:evenodd;stroke:#000000;stroke-width:0.4mm;stroke-linecap:round;stroke-linejoin:round;stroke-opacity:1"
     inkscape:connector-curvature="0"
     id="path126"
     fpd:engraving_ral_9005="1"
     d="m 32.724,7.407 v 1.342 a 0.997,0.997 0 0 1 -1.993,0 V 8.365 a 0.997,0.997 0 0 1 1.993,0 v 0.92 a 0.558,0.558 0 0 0 0.46,0.499" />
  <path
     style="vector-effect:non-scaling-stroke;fill:none;fill-rule:evenodd;stroke:#000000;stroke-width:0.4mm;stroke-linecap:round;stroke-linejoin:round;stroke-opacity:1"
     inkscape:connector-curvature="0"
     id="path128"
     fpd:engraving_ral_9005="1"
     d="M 36.021,6.258 V 8.75 a 0.95925296,0.95925296 0 0 1 -1.917,0.076 v -0.46 a 0.9585,0.9585 0 0 1 1.917,0 v 1.342" />
  <path
     style="vector-effect:non-scaling-stroke;fill:none;fill-rule:evenodd;stroke:#000000;stroke-width:0.4mm;stroke-linecap:round;stroke-linejoin:round;stroke-opacity:1"
     inkscape:connector-curvature="0"
     id="path130"
     fpd:engraving_ral_9005="1"
     d="m 36.94,9.402 a 1.302,1.302 0 0 0 1.38,0.23 0.492,0.492 0 0 0 -0.038,-0.92 L 37.247,8.367 A 0.441,0.441 0 0 1 37.17,7.562 1.358,1.358 0 0 1 38.627,7.639" />
  <path
     style="vector-effect:non-scaling-stroke;fill:none;fill-rule:evenodd;stroke:#000000;stroke-width:0.60000003mm;stroke-linecap:round;stroke-linejoin:round;stroke-opacity:1"
     inkscape:connector-curvature="0"
     id="path132"
     fpd:engraving_ral_9005="1"
     d="m 10.738,15.4 v -4.3 h 1.577 a 1.075,1.075 0 0 1 0,2.15 h -1.577" />
  <path
     style="vector-effect:non-scaling-stroke;fill:none;fill-rule:evenodd;stroke:#000000;stroke-width:0.60000003mm;stroke-linecap:round;stroke-linejoin:round;stroke-opacity:1"
     inkscape:connector-curvature="0"
     id="path134"
     fpd:engraving_ral_9005="1"
     d="m 14.465,11.1 v 3.727 a 0.583,0.583 0 0 0 0.478,0.573" />
  <path
     style="vector-effect:non-scaling-stroke;fill:none;fill-rule:evenodd;stroke:#000000;stroke-width:0.60000003mm;stroke-linecap:round;stroke-linejoin:round;stroke-opacity:1"
     inkscape:connector-curvature="0"
     id="path136"
     fpd:engraving_ral_9005="1"
     d="m 18.575,12.533 v 1.673 a 1.2425,1.2425 0 0 1 -2.485,0 v -0.478 a 1.2425,1.2425 0 0 1 2.485,0 v 1.146 a 0.696,0.696 0 0 0 0.573,0.622" />
  <path
     style="vector-effect:non-scaling-stroke;fill:none;fill-rule:evenodd;stroke:#000000;stroke-width:0.60000003mm;stroke-linecap:round;stroke-linejoin:round;stroke-opacity:1"
     inkscape:connector-curvature="0"
     id="path138"
     fpd:engraving_ral_9005="1"
     d="m 20.295,15.401 v -2.867 1.195 a 1.1945,1.1945 0 0 1 2.389,0 v 1.672" />
  <path
     style="vector-effect:non-scaling-stroke;fill:none;fill-rule:evenodd;stroke:#000000;stroke-width:0.60000003mm;stroke-linecap:round;stroke-linejoin:round;stroke-opacity:1"
     inkscape:connector-curvature="0"
     id="path140"
     fpd:engraving_ral_9005="1"
     d="M 25.885,12.918 A 1.185,1.185 0 0 0 23.83,13.73 v 0.478 a 1.187,1.187 0 0 0 2.198,0.621" />
  <path
     style="vector-effect:non-scaling-stroke;fill:none;fill-rule:evenodd;stroke:#000000;stroke-width:0.60000003mm;stroke-linecap:round;stroke-linejoin:round;stroke-opacity:1"
     inkscape:connector-curvature="0"
     id="path142"
     fpd:engraving_ral_9005="1"
     d="m 27.174,11.103 v 4.3 -0.956 l 2.389,-1.911 -1.433,1.147 1.433,1.72" />
  <path
     style="vector-effect:non-scaling-stroke;fill:none;fill-rule:evenodd;stroke:#000000;stroke-width:0.4mm;stroke-linecap:round;stroke-linejoin:round;stroke-opacity:1"
     inkscape:connector-curvature="0"
     id="path144"
     fpd:engraving_ral_9005="1"
     d="m 4.07,48.4 a 2,2 0 0 0 2,2 h 7.5 a 2,2 0 0 0 2,-2 v -29 a 2,2 0 0 0 -2,-2 h -7.5 a 2,2 0 0 0 -2,2 v 29" />
  <path
     style="vector-effect:non-scaling-stroke;fill:none;fill-rule:evenodd;stroke:#000000;stroke-width:0.4mm;stroke-linecap:round;stroke-linejoin:round;stroke-opacity:1"
     inkscape:connector-curvature="0"
     id="path146"
     fpd:engraving_ral_9005="1"
     d="m 24.22,48.4 a 2,2 0 0 0 2,2 h 7.5 a 2,2 0 0 0 2,-2 v -29 a 2,2 0 0 0 -2,-2 h -7.5 a 2,2 0 0 0 -2,2 v 29" />
  <path
     style="vector-effect:non-scaling-stroke;fill:#000000;fill-rule:evenodd;stroke:#000000;stroke-width:0.4mm;stroke-linecap:round;stroke-linejoin:round;stroke-opacity:1;fill-opacity:1"
     inkscape:connector-curvature="0"
     id="path148"
     fpd:engraving_ral_9005="1"
     d="m 24.73,107.68 a 2,2 0 0 0 2,2 h 7 a 2,2 0 0 0 2,-2 v -7 a 2,2 0 0 0 -2,-2 h -7 a 2,2 0 0 0 -2,2 v 7" />
  <path
     style="vector-effect:non-scaling-stroke;fill:none;fill-rule:evenodd;stroke:#000000;stroke-width:0.4mm;stroke-linecap:round;stroke-linejoin:round;stroke-opacity:1"
     inkscape:connector-curvature="0"
     id="path150"
     fpd:engraving_ral_9005="1"
     d="m 4.57,107.68 a 2,2 0 0 0 2,2 h 7 a 2,2 0 0 0 2,-2 v -7 a 2,2 0 0 0 -2,-2 h -7 a 2,2 0 0 0 -2,2 v 7" />
  <path
     style="vector-effect:non-scaling-stroke;fill:none;fill-rule:evenodd;stroke:#000000;stroke-width:0.4mm;stroke-linecap:round;stroke-linejoin:round;stroke-opacity:1"
     inkscape:connector-curvature="0"
     id="path152"
     fpd:engraving_ral_9005="1"
     d="m 26.213,31.2 a 0.706,0.706 0 0 0 -1.224,0.484 v 0.285 a 0.707,0.707 0 0 0 1.31,0.37" />
  <path
     style="vector-effect:non-scaling-stroke;fill:none;fill-rule:evenodd;stroke:#000000;stroke-width:0.4mm;stroke-linecap:round;stroke-linejoin:round;stroke-opacity:1"
     inkscape:connector-curvature="0"
     id="path154"
     fpd:engraving_ral_9005="1"
     d="m 26.983,30.118 v 2.563 -0.997 a 0.712,0.712 0 0 1 1.424,0 v 0.997" />
  <path
     style="vector-effect:non-scaling-stroke;fill:none;fill-rule:evenodd;stroke:#000000;stroke-width:0.4mm;stroke-linecap:round;stroke-linejoin:round;stroke-opacity:1"
     inkscape:connector-curvature="0"
     id="path156"
     fpd:engraving_ral_9005="1"
     d="m 30.572,30.972 v 0.997 a 0.7405,0.7405 0 0 1 -1.481,0 v -0.285 a 0.7405,0.7405 0 0 1 1.481,0 v 0.684 a 0.415,0.415 0 0 0 0.341,0.37" />
  <path
     style="vector-effect:non-scaling-stroke;fill:none;fill-rule:evenodd;stroke:#000000;stroke-width:0.4mm;stroke-linecap:round;stroke-linejoin:round;stroke-opacity:1"
     inkscape:connector-curvature="0"
     id="path158"
     fpd:engraving_ral_9005="1"
     d="m 31.597,31.968 v -0.285 a 0.712,0.712 0 0 1 1.424,0 v 0.285 a 0.712,0.712 0 0 1 -1.424,0" />
  <path
     style="vector-effect:non-scaling-stroke;fill:none;fill-rule:evenodd;stroke:#000000;stroke-width:0.4mm;stroke-linecap:round;stroke-linejoin:round;stroke-opacity:1"
     inkscape:connector-curvature="0"
     id="path160"
     fpd:engraving_ral_9005="1"
     d="M 33.704,32.452 A 0.968,0.968 0 0 0 34.729,32.623 0.365,0.365 0 0 0 34.7,31.94 l -0.768,-0.257 a 0.328,0.328 0 0 1 -0.057,-0.598 1.009,1.009 0 0 1 1.082,0.057" />
  <path
     style="vector-effect:non-scaling-stroke;fill:none;fill-rule:evenodd;stroke:#000000;stroke-width:0.4mm;stroke-linecap:round;stroke-linejoin:round;stroke-opacity:1"
     inkscape:connector-curvature="0"
     id="path162"
     fpd:engraving_ral_9005="1"
     d="m 25.216,34.358 v 0.997 a 0.7405,0.7405 0 0 1 -1.481,0 V 35.07 a 0.7405,0.7405 0 0 1 1.481,0 v 0.684 a 0.415,0.415 0 0 0 0.341,0.37" />
  <path
     style="vector-effect:non-scaling-stroke;fill:none;fill-rule:evenodd;stroke:#000000;stroke-width:0.4mm;stroke-linecap:round;stroke-linejoin:round;stroke-opacity:1"
     inkscape:connector-curvature="0"
     id="path164"
     fpd:engraving_ral_9005="1"
     d="m 26.242,36.067 v -1.709 0.57 a 0.57,0.57 0 0 1 1.139,0 v 1.139 -1.139 a 0.57,0.57 0 0 1 1.139,0 v 1.139" />
  <path
     style="vector-effect:non-scaling-stroke;fill:none;fill-rule:evenodd;stroke:#000000;stroke-width:0.4mm;stroke-linecap:round;stroke-linejoin:round;stroke-opacity:1"
     inkscape:connector-curvature="0"
     id="path166"
     fpd:engraving_ral_9005="1"
     d="M 29.204,35.355 V 35.07 a 0.712,0.712 0 0 1 1.424,0 v 0.285 a 0.712,0.712 0 0 1 -1.424,0" />
  <path
     style="vector-effect:non-scaling-stroke;fill:none;fill-rule:evenodd;stroke:#000000;stroke-width:0.4mm;stroke-linecap:round;stroke-linejoin:round;stroke-opacity:1"
     inkscape:connector-curvature="0"
     id="path168"
     fpd:engraving_ral_9005="1"
     d="m 31.311,34.358 v 0.997 a 0.712,0.712 0 0 0 1.424,0 v 0.712 -1.709" />
  <path
     style="vector-effect:non-scaling-stroke;fill:none;fill-rule:evenodd;stroke:#000000;stroke-width:0.4mm;stroke-linecap:round;stroke-linejoin:round;stroke-opacity:1"
     inkscape:connector-curvature="0"
     id="path170"
     fpd:engraving_ral_9005="1"
     d="m 33.418,36.067 v -1.709 0.712 a 0.712,0.712 0 0 1 1.424,0 v 0.997" />
  <path
     style="vector-effect:non-scaling-stroke;fill:none;fill-rule:evenodd;stroke:#000000;stroke-width:0.4mm;stroke-linecap:round;stroke-linejoin:round;stroke-opacity:1"
     inkscape:connector-curvature="0"
     id="path172"
     fpd:engraving_ral_9005="1"
     d="m 35.781,33.504 v 0.854 h 0.427 -0.712 0.285 v 1.367 a 0.347,0.347 0 0 0 0.285,0.342" />
  <path
     style="vector-effect:non-scaling-stroke;fill:#ffffff;fill-rule:evenodd;stroke:#000000;stroke-width:0.1mm;stroke-linecap:round;stroke-linejoin:round;stroke-opacity:1"
     inkscape:connector-curvature="0"
     id="path174"
     d="m 6.575,23.4 a 3.5,3.5 0 1 1 7,0 3.5,3.5 0 1 1 -7,0" />
  <path
     style="vector-effect:non-scaling-stroke;fill:#ffffff;fill-rule:evenodd;stroke:#000000;stroke-width:0.1mm;stroke-linecap:round;stroke-linejoin:round;stroke-opacity:1"
     inkscape:connector-curvature="0"
     id="path176"
     d="m 26.725,23.4 a 3.5,3.5 0 1 1 7,0 3.5,3.5 0 1 1 -7,0" />
  <path
     style="vector-effect:non-scaling-stroke;fill:#ffffff;fill-rule:evenodd;stroke:#000000;stroke-width:0.1mm;stroke-linecap:round;stroke-linejoin:round;stroke-opacity:1"
     inkscape:connector-curvature="0"
     id="path178"
     d="m 5.57,44.22 a 4,4 0 1 1 8,0 4,4 0 1 1 -8,0" />
  <path
     style="vector-effect:non-scaling-stroke;fill:#ffffff;fill-rule:evenodd;stroke:#000000;stroke-width:0.1mm;stroke-linecap:round;stroke-linejoin:round;stroke-opacity:1"
     inkscape:connector-curvature="0"
     id="path180"
     d="m 25.73,44.22 a 4,4 0 1 1 8,0 4,4 0 1 1 -8,0" />
  <path
     style="vector-effect:non-scaling-stroke;fill:#ffffff;fill-rule:evenodd;stroke:#000000;stroke-width:0.1mm;stroke-linecap:round;stroke-linejoin:round;stroke-opacity:1"
     inkscape:connector-curvature="0"
     id="path182"
     d="m 5.57,64.04 a 4,4 0 1 1 8,0 4,4 0 1 1 -8,0" />
  <path
     style="vector-effect:non-scaling-stroke;fill:#ffffff;fill-rule:evenodd;stroke:#000000;stroke-width:0.1mm;stroke-linecap:round;stroke-linejoin:round;stroke-opacity:1"
     inkscape:connector-curvature="0"
     id="path184"
     d="m 25.73,64.04 a 4,4 0 1 1 8,0 4,4 0 1 1 -8,0" />
  <path
     style="vector-effect:non-scaling-stroke;fill:#ffffff;fill-rule:evenodd;stroke:#000000;stroke-width:0.1mm;stroke-linecap:round;stroke-linejoin:round;stroke-opacity:1"
     inkscape:connector-curvature="0"
     id="path186"
     d="m 5.57,84.36 a 4,4 0 1 1 8,0 4,4 0 1 1 -8,0" />
  <path
     style="vector-effect:non-scaling-stroke;fill:#ffffff;fill-rule:evenodd;stroke:#000000;stroke-width:0.1mm;stroke-linecap:round;stroke-linejoin:round;stroke-opacity:1"
     inkscape:connector-curvature="0"
     id="path188"
     d="m 25.73,84.36 a 4,4 0 1 1 8,0 4,4 0 1 1 -8,0" />
  <path
     style="vector-effect:non-scaling-stroke;fill:#ffffff;fill-rule:evenodd;stroke:#000000;stroke-width:0.1mm;stroke-linecap:round;stroke-linejoin:round;stroke-opacity:1"
     inkscape:connector-curvature="0"
     id="path190"
     d="m 6.57,104.18 a 3.5,3.5 0 1 1 7,0 3.5,3.5 0 1 1 -7,0" />
  <path
     style="vector-effect:non-scaling-stroke;fill:#ffffff;fill-rule:evenodd;stroke:#000000;stroke-width:0.1mm;stroke-linecap:round;stroke-linejoin:round;stroke-opacity:1"
     inkscape:connector-curvature="0"
     id="path192"
     d="m 26.73,104.18 a 3.5,3.5 0 1 1 7,0 3.5,3.5 0 1 1 -7,0" />
  <path
     style="vector-effect:non-scaling-stroke;fill:#ffffff;fill-rule:evenodd;stroke:#000000;stroke-width:0.1mm;stroke-linecap:round;stroke-linejoin:round;stroke-opacity:1"
     inkscape:connector-curvature="0"
     id="path194"
     d="m 5.9,125.4 a 1.6,1.6 0 1 1 3.2,0 1.6,1.6 0 1 1 -3.2,0" />
  <path
     style="vector-effect:non-scaling-stroke;fill:#ffffff;fill-rule:evenodd;stroke:#000000;stroke-width:0.1mm;stroke-linecap:round;stroke-linejoin:round;stroke-opacity:1"
     inkscape:connector-curvature="0"
     id="path196"
     d="m 31.2,125.4 a 1.6,1.6 0 1 1 3.2,0 1.6,1.6 0 1 1 -3.2,0" />
  <path
     style="vector-effect:non-scaling-stroke;fill:#ffffff;fill-rule:evenodd;stroke:#000000;stroke-width:0.1mm;stroke-linecap:round;stroke-linejoin:round;stroke-opacity:1"
     inkscape:connector-curvature="0"
     id="path198"
     d="m 31.2,3 a 1.6,1.6 0 1 1 3.2,0 1.6,1.6 0 1 1 -3.2,0" />
  <path
     style="vector-effect:non-scaling-stroke;fill:#ffffff;fill-rule:evenodd;stroke:#000000;stroke-width:0.1mm;stroke-linecap:round;stroke-linejoin:round;stroke-opacity:1"
     inkscape:connector-curvature="0"
     id="path200"
     d="M 5.9,3 A 1.6,1.6 0 1 1 9.1,3 1.6,1.6 0 1 1 5.9,3" />
  <path
     style="vector-effect:non-scaling-stroke;fill:none;fill-rule:evenodd;stroke:#000000;stroke-width:0.1mm;stroke-linecap:round;stroke-linejoin:round;stroke-opacity:1"
     inkscape:connector-curvature="0"
     id="path202"
     d="M 40.3,0 V 128.4 H 0 V 0 h 40.3" />
  <path
     style="vector-effect:non-scaling-stroke;fill:none;fill-rule:evenodd;stroke:#ff0000;stroke-width:0.1mm;stroke-linecap:round;stroke-linejoin:round;stroke-opacity:1"
     inkscape:connector-curvature="0"
     id="path204"
     d="M -0.527,128.4 H 0.527 M 0,128.927 v -1.054" />
  <path
     style="vector-effect:non-scaling-stroke;fill:none;fill-rule:evenodd;stroke:#ff0000;stroke-width:0.1mm;stroke-linecap:round;stroke-linejoin:round;stroke-opacity:1"
     inkscape:connector-curvature="0"
     id="path206"
     d="m 9.548,23.4 h 1.054 m -0.527,0.527 v -1.054" />
  <path
     style="vector-effect:non-scaling-stroke;fill:none;fill-rule:evenodd;stroke:#ff0000;stroke-width:0.1mm;stroke-linecap:round;stroke-linejoin:round;stroke-opacity:1"
     inkscape:connector-curvature="0"
     id="path208"
     d="m 29.698,23.4 h 1.054 m -0.527,0.527 v -1.054" />
  <path
     style="vector-effect:non-scaling-stroke;fill:none;fill-rule:evenodd;stroke:#ff0000;stroke-width:0.1mm;stroke-linecap:round;stroke-linejoin:round;stroke-opacity:1"
     inkscape:connector-curvature="0"
     id="path210"
     d="m 9.043,44.22 h 1.054 M 9.57,44.747 v -1.054" />
  <path
     style="vector-effect:non-scaling-stroke;fill:none;fill-rule:evenodd;stroke:#ff0000;stroke-width:0.1mm;stroke-linecap:round;stroke-linejoin:round;stroke-opacity:1"
     inkscape:connector-curvature="0"
     id="path212"
     d="m 29.203,44.22 h 1.054 m -0.527,0.527 v -1.054" />
  <path
     style="vector-effect:non-scaling-stroke;fill:none;fill-rule:evenodd;stroke:#ff0000;stroke-width:0.1mm;stroke-linecap:round;stroke-linejoin:round;stroke-opacity:1"
     inkscape:connector-curvature="0"
     id="path214"
     d="m 9.043,64.04 h 1.054 M 9.57,64.567 v -1.054" />
  <path
     style="vector-effect:non-scaling-stroke;fill:none;fill-rule:evenodd;stroke:#ff0000;stroke-width:0.1mm;stroke-linecap:round;stroke-linejoin:round;stroke-opacity:1"
     inkscape:connector-curvature="0"
     id="path216"
     d="m 29.203,64.04 h 1.054 m -0.527,0.527 v -1.054" />
  <path
     style="vector-effect:non-scaling-stroke;fill:none;fill-rule:evenodd;stroke:#ff0000;stroke-width:0.1mm;stroke-linecap:round;stroke-linejoin:round;stroke-opacity:1"
     inkscape:connector-curvature="0"
     id="path218"
     d="m 9.043,84.36 h 1.054 M 9.57,84.887 v -1.054" />
  <path
     style="vector-effect:non-scaling-stroke;fill:none;fill-rule:evenodd;stroke:#ff0000;stroke-width:0.1mm;stroke-linecap:round;stroke-linejoin:round;stroke-opacity:1"
     inkscape:connector-curvature="0"
     id="path220"
     d="m 29.203,84.36 h 1.054 m -0.527,0.527 v -1.054" />
  <path
     style="vector-effect:non-scaling-stroke;fill:none;fill-rule:evenodd;stroke:#ff0000;stroke-width:0.1mm;stroke-linecap:round;stroke-linejoin:round;stroke-opacity:1"
     inkscape:connector-curvature="0"
     id="path222"
     d="m 9.543,104.18 h 1.054 m -0.527,0.527 v -1.054" />
  <path
     style="vector-effect:non-scaling-stroke;fill:none;fill-rule:evenodd;stroke:#ff0000;stroke-width:0.1mm;stroke-linecap:round;stroke-linejoin:round;stroke-opacity:1"
     inkscape:connector-curvature="0"
     id="path224"
     d="m 29.703,104.18 h 1.054 m -0.527,0.527 v -1.054" />
  <path
     style="vector-effect:non-scaling-stroke;fill:none;fill-rule:evenodd;stroke:#ff0000;stroke-width:0.1mm;stroke-linecap:round;stroke-linejoin:round;stroke-opacity:1"
     inkscape:connector-curvature="0"
     id="path226"
     d="m 9.293,34.85 h 1.054 M 9.82,35.377 v -1.054" />
  <path
     style="vector-effect:non-scaling-stroke;fill:none;fill-rule:evenodd;stroke:#ff0000;stroke-width:0.1mm;stroke-linecap:round;stroke-linejoin:round;stroke-opacity:1"
     inkscape:connector-curvature="0"
     id="path228"
     d="m 19.623,69.04 h 1.054 m -0.527,0.527 v -1.054" />
  <path
     style="vector-effect:non-scaling-stroke;fill:none;fill-rule:evenodd;stroke:#ff0000;stroke-width:0.1mm;stroke-linecap:round;stroke-linejoin:round;stroke-opacity:1"
     inkscape:connector-curvature="0"
     id="path230"
     d="m 19.623,89.36 h 1.054 m -0.527,0.527 v -1.054" />
  <path
     style="vector-effect:non-scaling-stroke;fill:none;fill-rule:evenodd;stroke:#ff0000;stroke-width:0.1mm;stroke-linecap:round;stroke-linejoin:round;stroke-opacity:1"
     inkscape:connector-curvature="0"
     id="path232"
     d="m 9.543,112.18 h 1.054 m -0.527,0.527 v -1.054" />
  <path
     style="vector-effect:non-scaling-stroke;fill:none;fill-rule:evenodd;stroke:#ff0000;stroke-width:0.1mm;stroke-linecap:round;stroke-linejoin:round;stroke-opacity:1"
     inkscape:connector-curvature="0"
     id="path234"
     d="m 29.703,112.18 h 1.054 m -0.527,0.527 v -1.054" />
  <path
     style="vector-effect:non-scaling-stroke;fill:none;fill-rule:evenodd;stroke:#ff0000;stroke-width:0.1mm;stroke-linecap:round;stroke-linejoin:round;stroke-opacity:1"
     inkscape:connector-curvature="0"
     id="path236"
     d="m 19.623,9.905 h 1.054 M 20.15,10.432 V 9.378" />
  <path
     style="vector-effect:non-scaling-stroke;fill:none;fill-rule:evenodd;stroke:#ff0000;stroke-width:0.1mm;stroke-linecap:round;stroke-linejoin:round;stroke-opacity:1"
     inkscape:connector-curvature="0"
     id="path238"
     d="m 19.623,15.7 h 1.054 m -0.527,0.527 v -1.054" />
  <path
     style="vector-effect:non-scaling-stroke;fill:none;fill-rule:evenodd;stroke:#ff0000;stroke-width:0.1mm;stroke-linecap:round;stroke-linejoin:round;stroke-opacity:1"
     inkscape:connector-curvature="0"
     id="path240"
     d="m 9.293,33.9 h 1.054 M 9.82,34.427 v -1.054" />
  <path
     style="vector-effect:non-scaling-stroke;fill:none;fill-rule:evenodd;stroke:#ff0000;stroke-width:0.1mm;stroke-linecap:round;stroke-linejoin:round;stroke-opacity:1"
     inkscape:connector-curvature="0"
     id="path242"
     d="m 29.443,33.9 h 1.054 m -0.527,0.527 v -1.054" />
  <path
     style="vector-effect:non-scaling-stroke;fill:none;fill-rule:evenodd;stroke:#ff0000;stroke-width:0.1mm;stroke-linecap:round;stroke-linejoin:round;stroke-opacity:1"
     inkscape:connector-curvature="0"
     id="path244"
     d="m 29.703,104.18 h 1.054 m -0.527,0.527 v -1.054" />
  <path
     style="vector-effect:non-scaling-stroke;fill:none;fill-rule:evenodd;stroke:#ff0000;stroke-width:0.1mm;stroke-linecap:round;stroke-linejoin:round;stroke-opacity:1"
     inkscape:connector-curvature="0"
     id="path246"
     d="m 9.543,104.18 h 1.054 m -0.527,0.527 v -1.054" />
  <path
     style="vector-effect:non-scaling-stroke;fill:none;fill-rule:evenodd;stroke:#ff0000;stroke-width:0.1mm;stroke-linecap:round;stroke-linejoin:round;stroke-opacity:1"
     inkscape:connector-curvature="0"
     id="path248"
     d="m 29.443,31.4 h 1.054 m -0.527,0.527 v -1.054" />
  <path
     style="vector-effect:non-scaling-stroke;fill:none;fill-rule:evenodd;stroke:#ff0000;stroke-width:0.1mm;stroke-linecap:round;stroke-linejoin:round;stroke-opacity:1"
     inkscape:connector-curvature="0"
     id="path250"
     d="m 19.623,3.005 h 1.054 M 20.15,3.532 V 2.478" />
  <path
     style="vector-effect:non-scaling-stroke;fill:none;fill-rule:evenodd;stroke:#ff0000;stroke-width:0.1mm;stroke-linecap:round;stroke-linejoin:round;stroke-opacity:1"
     inkscape:connector-curvature="0"
     id="path252"
     d="m 19.623,125.4 h 1.054 m -0.527,0.527 v -1.054" />
  <path
     style="vector-effect:non-scaling-stroke;fill:none;fill-rule:evenodd;stroke:#ff0000;stroke-width:0.1mm;stroke-linecap:round;stroke-linejoin:round;stroke-opacity:1"
     inkscape:connector-curvature="0"
     id="path254"
     d="M 6.973,125.4 H 8.027 M 7.5,125.927 v -1.054" />
  <path
     style="vector-effect:non-scaling-stroke;fill:none;fill-rule:evenodd;stroke:#ff0000;stroke-width:0.1mm;stroke-linecap:round;stroke-linejoin:round;stroke-opacity:1"
     inkscape:connector-curvature="0"
     id="path256"
     d="m 32.273,125.4 h 1.054 m -0.527,0.527 v -1.054" />
  <path
     style="vector-effect:non-scaling-stroke;fill:none;fill-rule:evenodd;stroke:#ff0000;stroke-width:0.1mm;stroke-linecap:round;stroke-linejoin:round;stroke-opacity:1"
     inkscape:connector-curvature="0"
     id="path258"
     d="m 32.273,3 h 1.054 M 32.8,3.527 V 2.473" />
  <path
     style="vector-effect:non-scaling-stroke;fill:none;fill-rule:evenodd;stroke:#ff0000;stroke-width:0.1mm;stroke-linecap:round;stroke-linejoin:round;stroke-opacity:1"
     inkscape:connector-curvature="0"
     id="path260"
     d="M 6.973,3 H 8.027 M 7.5,3.527 V 2.473" />
</svg>
